<svg width="184" height="157" viewBox="0 0 184 157" fill="none" xmlns="http://www.w3.org/2000/svg">
<circle cx="166" cy="40" r="10" fill="#EFE4FF"/>
<circle cx="166" cy="40" r="10" fill="#EFE4FF"/>
<circle cx="166" cy="40" r="10" fill="#EFE4FF"/>
<circle cx="166" cy="40" r="10" fill="#EFE4FF"/>
<circle cx="166" cy="40" r="10" fill="#EFE4FF"/>
<circle cx="166" cy="40" r="10" fill="#EFE4FF"/>
<circle cx="166" cy="40" r="10" fill="#EFE4FF"/>
<circle cx="166" cy="40" r="10" fill="#EFE4FF"/>
<circle cx="166" cy="40" r="10" fill="#EFE4FF"/>
<circle cx="166" cy="40" r="10" fill="#EFE4FF"/>
<circle cx="166" cy="128" r="10" fill="#EFE4FF"/>
<circle cx="120" cy="128" r="10" fill="#EFE4FF"/>
<circle cx="74" cy="128" r="10" fill="#EFE4FF"/>
<circle cx="28" cy="128" r="10" fill="#EFE4FF"/>
<circle cx="168" cy="88" r="10" fill="#EFE4FF"/>
<circle cx="120" cy="90" r="10" fill="#EFE4FF"/>
<circle cx="76" cy="89" r="10" fill="#EFE4FF"/>
<circle cx="28" cy="89" r="10" fill="#EFE4FF"/>
<circle cx="28" cy="40" r="10" fill="#EFE4FF"/>
<circle cx="28" cy="40" r="10" fill="#EFE4FF"/>
<circle cx="28" cy="40" r="10" fill="#EFE4FF"/>
<circle cx="28" cy="40" r="10" fill="#EFE4FF"/>
<circle cx="28" cy="40" r="10" fill="#EFE4FF"/>
<circle cx="28" cy="40" r="10" fill="#EFE4FF"/>
<circle cx="28" cy="40" r="10" fill="#EFE4FF"/>
<circle cx="28" cy="40" r="10" fill="#EFE4FF"/>
<circle cx="28" cy="40" r="10" fill="#EFE4FF"/>
<circle cx="28" cy="40" r="10" fill="#EFE4FF"/>
<circle cx="120" cy="40" r="10" fill="#EFE4FF"/>
<circle cx="74" cy="40" r="10" fill="#EFE4FF"/>
</svg>
