<svg width="31" height="21" viewBox="0 0 31 21" fill="none" xmlns="http://www.w3.org/2000/svg">
<g clip-path="url(#clip0_307_385)">
<path d="M16.1669 11.3027L11.5276 19.2482L6.88839 11.3027H16.1669ZM17.4097 10.5925H5.64053L11.5276 20.6536L17.4097 10.5925Z" fill="white"/>
<path d="M24.2327 1.42026L28.872 9.36578H19.5935L24.2327 1.42026ZM24.2327 0L18.3456 10.061H30.1198L24.2327 0Z" fill="white"/>
<path d="M0 0L4.93613 8.89899L10.3301 0.223456L0 0Z" fill="#D1BAF1"/>
<path d="M11.5277 0.779572L16.7054 9.62891H6.34003L11.5277 0.779572Z" fill="#D1BAF1"/>
<path d="M18.0388 11.5609L23.2214 20.6536H12.6095L17.8777 11.5609H18.0388Z" fill="#D1BAF1"/>
<path d="M19.1608 11.0097L24.2327 19.9633L29.3752 11.0097H19.1608Z" fill="#D1BAF1"/>
</g>
<defs>
<clipPath id="clip0_307_385">
<rect width="30.1198" height="20.6536" fill="white"/>
</clipPath>
</defs>
</svg>
