<svg width="34" height="34" viewBox="0 0 34 34" fill="none" xmlns="http://www.w3.org/2000/svg">
<g clip-path="url(#clip0_211_2332)">
<path d="M32.4496 27.099L32.4496 27.0991C32.5809 27.0081 32.6927 26.8919 32.7787 26.7573L33.072 26.9446L32.7787 26.7573C32.8646 26.6227 32.923 26.4723 32.9503 26.3149C32.9776 26.1576 32.9734 25.9964 32.9379 25.8407L33.2772 25.7632L32.9379 25.8407C32.9023 25.6849 32.8362 25.5379 32.7433 25.4079L32.7418 25.4058C31.4347 23.5478 29.6537 22.0739 27.5841 21.1374L27.0794 20.909L27.5042 20.5534C28.764 19.4989 29.6682 18.0818 30.0937 16.495C30.5192 14.9082 30.4454 13.2288 29.8822 11.6854C29.319 10.1421 28.2938 8.80987 26.9463 7.87008C25.5988 6.93029 23.9943 6.42862 22.3515 6.4334L22.3499 6.4334C21.6188 6.43218 20.8911 6.53314 20.1879 6.73333L20.1816 6.73511L20.1816 6.73505C20.0254 6.77638 19.879 6.84837 19.7509 6.94683C19.6228 7.04528 19.5156 7.16824 19.4355 7.30853C19.3554 7.44883 19.3039 7.60367 19.2842 7.76402C19.2645 7.92438 19.2769 8.08706 19.3207 8.24258C19.3644 8.39811 19.4387 8.54337 19.5391 8.66992L19.2665 8.88629L19.5391 8.66992C19.6396 8.79647 19.7642 8.90177 19.9057 8.9797L19.7379 9.28457L19.9057 8.9797C20.0473 9.05762 20.2029 9.10662 20.3635 9.12383C20.5242 9.14103 20.6866 9.12611 20.8414 9.07993L20.8454 9.07874L20.8455 9.07876C21.3351 8.93907 21.8419 8.86868 22.3511 8.86964M32.4496 27.099L22.3505 9.21768M32.4496 27.099L32.4456 27.1019C32.2424 27.2472 31.9987 27.3249 31.749 27.3242C31.5537 27.323 31.3614 27.2753 31.1882 27.1852C31.015 27.095 30.8657 26.965 30.7527 26.8058M32.4496 27.099L30.4684 27.0066M22.3511 8.86964L22.3505 9.21768M22.3511 8.86964C22.3509 8.86964 22.3507 8.86964 22.3505 8.86964V9.21768M22.3511 8.86964C23.8278 8.86981 25.2439 9.45648 26.288 10.5006C27.3323 11.5449 27.919 12.9613 27.919 14.4382C27.919 15.9151 27.3323 17.3315 26.288 18.3758C25.2437 19.4201 23.8273 20.0068 22.3505 20.0068C22.0274 20.0068 21.7176 20.1351 21.4891 20.3635C21.2607 20.592 21.1323 20.9018 21.1323 21.2249C21.1323 21.5479 21.2607 21.8578 21.4891 22.0862C21.7176 22.3147 22.0274 22.443 22.3505 22.443H22.3508C23.9983 22.4448 25.6212 22.842 27.0832 23.6012C28.5452 24.3604 29.8036 25.4594 30.7527 26.8058M22.3505 9.21768C23.735 9.21768 25.0629 9.76769 26.0419 10.7467C27.021 11.7258 27.571 13.0536 27.571 14.4382C27.571 15.8228 27.021 17.1506 26.0419 18.1297C25.0629 19.1087 23.735 19.6587 22.3505 19.6587C21.9351 19.6587 21.5367 19.8237 21.243 20.1174C20.9493 20.4111 20.7843 20.8095 20.7843 21.2249C20.7843 21.6402 20.9493 22.0386 21.243 22.3323C21.5367 22.626 21.9351 22.791 22.3505 22.791C23.9422 22.7928 25.5102 23.1766 26.9229 23.9101C28.3355 24.6437 29.5514 25.7056 30.4684 27.0066M30.7527 26.8058C30.7525 26.8056 30.7524 26.8054 30.7523 26.8053L30.4684 27.0066M30.7527 26.8058C30.7527 26.8059 30.7528 26.806 30.7529 26.8061L30.4684 27.0066M16.8667 20.554L16.444 20.9096L16.9473 21.1374C19.0169 22.0739 20.7979 23.5478 22.105 25.4058L22.1099 25.4129L22.1153 25.4197C22.2168 25.5498 22.2909 25.6991 22.3329 25.8587C22.375 26.0183 22.3842 26.1847 22.36 26.3479C22.3358 26.5112 22.2786 26.6678 22.1921 26.8083C22.1055 26.9488 21.9913 27.0702 21.8563 27.1652C21.7214 27.2602 21.5686 27.3268 21.4071 27.361C21.2457 27.3951 21.079 27.3961 20.9171 27.3639C20.7553 27.3316 20.6017 27.2668 20.4656 27.1734C20.3296 27.08 20.2139 26.96 20.1257 26.8205L20.1212 26.8134L20.1164 26.8066C19.1692 25.4576 17.9112 24.3564 16.4486 23.5963C14.9861 22.8361 13.362 22.4392 11.7137 22.4392C10.0653 22.4392 8.44124 22.8361 6.97867 23.5963C5.5161 24.3564 4.25806 25.4576 3.3109 26.8066L3.31013 26.8077C3.19878 26.9676 3.05033 27.0981 2.87749 27.1881C2.70464 27.278 2.51256 27.3247 2.31771 27.3242L2.31558 27.3242C2.06569 27.325 1.82186 27.2473 1.61856 27.1019L1.61689 27.1008C1.35337 26.9147 1.17439 26.6318 1.11921 26.314C1.06404 25.9963 1.13709 25.6697 1.32234 25.4058C2.62944 23.5478 4.41039 22.0739 6.48001 21.1374L6.98332 20.9096L6.56056 20.554C5.30414 19.497 4.40312 18.0792 3.97966 16.4929C3.55621 14.9066 3.6308 13.2284 4.19333 11.6859C4.75585 10.1434 5.7791 8.81113 7.12435 7.86981C8.4696 6.92848 10.0718 6.4236 11.7137 6.4236C13.3555 6.4236 14.9577 6.92848 16.303 7.86981C17.6482 8.81113 18.6715 10.1434 19.234 11.6859C19.7965 13.2284 19.8711 14.9066 19.4476 16.4929C19.0242 18.0792 18.1232 19.497 16.8667 20.554ZM7.08357 11.3445C6.47169 12.2602 6.1451 13.3368 6.1451 14.4382C6.1451 15.9151 6.73178 17.3315 7.77609 18.3758C8.8204 19.4201 10.2368 20.0068 11.7137 20.0068C12.815 20.0068 13.8916 19.6802 14.8074 19.0683C15.7231 18.4564 16.4369 17.5867 16.8583 16.5692C17.2798 15.5517 17.3901 14.432 17.1752 13.3518C16.9603 12.2716 16.43 11.2794 15.6512 10.5006C14.8724 9.72186 13.8802 9.1915 12.8 8.97664C11.7198 8.76177 10.6002 8.87205 9.58266 9.29352C8.56514 9.71499 7.69545 10.4287 7.08357 11.3445Z" fill="#331A57" stroke="#331A57" stroke-width="0.696069"/>
</g>
<defs>
<clipPath id="clip0_211_2332">
<rect width="33.4113" height="33.4113" fill="white" transform="translate(0.228516 0.342773)"/>
</clipPath>
</defs>
</svg>
