<svg width="23" height="22" viewBox="0 0 23 22" fill="none" xmlns="http://www.w3.org/2000/svg">
<mask id="path-1-inside-1_211_2339" fill="white">
<path d="M14.315 10.8011C14.1474 10.8011 13.9918 10.755 13.8536 10.6809V10.6829C13.8536 10.9466 13.7511 11.1942 13.5651 11.3797C13.3791 11.5657 13.1317 11.6682 12.8683 11.6682C12.6982 11.6682 12.5406 11.6209 12.4009 11.5448C12.3868 11.7861 12.2904 12.0116 12.1183 12.1838C11.9324 12.3697 11.6849 12.4722 11.4214 12.4722C10.8977 12.4722 10.4725 12.0606 10.4418 11.5447C10.2798 11.6322 10.0966 11.6782 9.9077 11.666C9.39257 11.6322 8.98917 11.1872 8.98917 10.6525V6.22091L8.48454 7.09515C8.29235 7.42953 7.93256 7.63714 7.5452 7.63714C7.35644 7.63714 7.16998 7.58761 7.00484 7.49299C6.7992 7.37377 6.6521 7.18239 6.59093 6.95343C6.52943 6.72434 6.56124 6.48474 6.68014 6.27941C6.6803 6.27941 8.33121 3.42051 8.43192 3.2449C8.4439 3.2185 8.47801 3.14192 8.50703 3.07665C8.53475 3.01433 8.55853 2.95037 8.58132 2.88609C9.07919 1.48053 10.3119 0.607426 11.7987 0.607426C13.7294 0.607426 15.3001 2.31064 15.3001 4.4042L15.3003 9.81569C15.3003 10.0791 15.1979 10.3265 15.0121 10.5127C14.8262 10.6986 14.5787 10.8011 14.315 10.8011L14.315 10.8011ZM11.7987 1.13097C10.5212 1.13097 9.50297 1.85256 9.0748 3.06118C9.04741 3.13793 9.01888 3.21467 8.98558 3.28946C8.88899 3.50609 8.88899 3.50609 8.86177 3.53725L8.85816 3.53413C8.72336 3.78848 8.32289 4.482 7.13345 6.54143C7.08458 6.62589 7.07163 6.72396 7.09656 6.81776C7.12181 6.91156 7.18233 6.99061 7.26613 7.03898C7.52622 7.18838 7.88242 7.09195 8.03066 6.83367L9.02429 5.11337C9.08366 5.01087 9.2037 4.96053 9.31882 4.99169C9.43329 5.02235 9.51283 5.12616 9.51283 5.24456V10.6527C9.51283 10.9079 9.70535 11.1281 9.94201 11.1437C10.0785 11.1509 10.2057 11.1051 10.3013 11.0097C10.3882 10.9228 10.4361 10.807 10.4361 10.6832V7.14619C10.4361 7.00155 10.5534 6.8843 10.698 6.8843C10.8427 6.8843 10.9599 7.00139 10.9599 7.14619L10.9597 11.4871C10.9597 11.7417 11.1669 11.9488 11.4214 11.9488C11.545 11.9488 11.6611 11.9009 11.7482 11.814C11.8351 11.7269 11.883 11.6108 11.883 11.4871V7.14619C11.883 7.00155 12.0001 6.88429 12.1449 6.88429C12.2896 6.88429 12.4068 7.00139 12.4068 7.14619L12.4067 10.6425V10.6832C12.4067 10.9375 12.6138 11.1446 12.8685 11.1446C12.9919 11.1446 13.1077 11.0966 13.1953 11.0093C13.2822 10.9226 13.3301 10.8068 13.3301 10.683V7.14601C13.3301 7.00137 13.4472 6.88411 13.592 6.88411C13.7366 6.88411 13.8539 7.0012 13.8539 7.14601L13.8536 9.81581C13.8536 10.0705 14.0607 10.2776 14.315 10.2776C14.4388 10.2776 14.5546 10.2296 14.6415 10.1428C14.7288 10.0556 14.7765 9.93946 14.7765 9.81581L14.7767 4.40433C14.7767 2.5996 13.4408 1.13102 11.7987 1.13102L11.7987 1.13097Z"/>
</mask>
<path d="M14.315 10.8011C14.1474 10.8011 13.9918 10.755 13.8536 10.6809V10.6829C13.8536 10.9466 13.7511 11.1942 13.5651 11.3797C13.3791 11.5657 13.1317 11.6682 12.8683 11.6682C12.6982 11.6682 12.5406 11.6209 12.4009 11.5448C12.3868 11.7861 12.2904 12.0116 12.1183 12.1838C11.9324 12.3697 11.6849 12.4722 11.4214 12.4722C10.8977 12.4722 10.4725 12.0606 10.4418 11.5447C10.2798 11.6322 10.0966 11.6782 9.9077 11.666C9.39257 11.6322 8.98917 11.1872 8.98917 10.6525V6.22091L8.48454 7.09515C8.29235 7.42953 7.93256 7.63714 7.5452 7.63714C7.35644 7.63714 7.16998 7.58761 7.00484 7.49299C6.7992 7.37377 6.6521 7.18239 6.59093 6.95343C6.52943 6.72434 6.56124 6.48474 6.68014 6.27941C6.6803 6.27941 8.33121 3.42051 8.43192 3.2449C8.4439 3.2185 8.47801 3.14192 8.50703 3.07665C8.53475 3.01433 8.55853 2.95037 8.58132 2.88609C9.07919 1.48053 10.3119 0.607426 11.7987 0.607426C13.7294 0.607426 15.3001 2.31064 15.3001 4.4042L15.3003 9.81569C15.3003 10.0791 15.1979 10.3265 15.0121 10.5127C14.8262 10.6986 14.5787 10.8011 14.315 10.8011L14.315 10.8011ZM11.7987 1.13097C10.5212 1.13097 9.50297 1.85256 9.0748 3.06118C9.04741 3.13793 9.01888 3.21467 8.98558 3.28946C8.88899 3.50609 8.88899 3.50609 8.86177 3.53725L8.85816 3.53413C8.72336 3.78848 8.32289 4.482 7.13345 6.54143C7.08458 6.62589 7.07163 6.72396 7.09656 6.81776C7.12181 6.91156 7.18233 6.99061 7.26613 7.03898C7.52622 7.18838 7.88242 7.09195 8.03066 6.83367L9.02429 5.11337C9.08366 5.01087 9.2037 4.96053 9.31882 4.99169C9.43329 5.02235 9.51283 5.12616 9.51283 5.24456V10.6527C9.51283 10.9079 9.70535 11.1281 9.94201 11.1437C10.0785 11.1509 10.2057 11.1051 10.3013 11.0097C10.3882 10.9228 10.4361 10.807 10.4361 10.6832V7.14619C10.4361 7.00155 10.5534 6.8843 10.698 6.8843C10.8427 6.8843 10.9599 7.00139 10.9599 7.14619L10.9597 11.4871C10.9597 11.7417 11.1669 11.9488 11.4214 11.9488C11.545 11.9488 11.6611 11.9009 11.7482 11.814C11.8351 11.7269 11.883 11.6108 11.883 11.4871V7.14619C11.883 7.00155 12.0001 6.88429 12.1449 6.88429C12.2896 6.88429 12.4068 7.00139 12.4068 7.14619L12.4067 10.6425V10.6832C12.4067 10.9375 12.6138 11.1446 12.8685 11.1446C12.9919 11.1446 13.1077 11.0966 13.1953 11.0093C13.2822 10.9226 13.3301 10.8068 13.3301 10.683V7.14601C13.3301 7.00137 13.4472 6.88411 13.592 6.88411C13.7366 6.88411 13.8539 7.0012 13.8539 7.14601L13.8536 9.81581C13.8536 10.0705 14.0607 10.2776 14.315 10.2776C14.4388 10.2776 14.5546 10.2296 14.6415 10.1428C14.7288 10.0556 14.7765 9.93946 14.7765 9.81581L14.7767 4.40433C14.7767 2.5996 13.4408 1.13102 11.7987 1.13102L11.7987 1.13097Z" fill="#331A57"/>
<path d="M14.315 10.8011V6.80112H28.4687L16.4087 14.2094L14.315 10.8011ZM13.8536 10.6809H9.85357V3.99737L15.7438 7.15571L13.8536 10.6809ZM13.5651 11.3797L10.7367 8.55127L10.7404 8.54754L13.5651 11.3797ZM12.4009 11.5448L8.40772 11.3114L8.77578 5.01603L14.3139 8.03196L12.4009 11.5448ZM12.1183 12.1838L14.9483 15.0107L14.9468 15.0122L12.1183 12.1838ZM10.4418 11.5447L8.53995 8.02575L14.0626 5.04094L14.4348 11.3075L10.4418 11.5447ZM9.9077 11.666L9.65126 15.6578L9.64593 15.6575L9.9077 11.666ZM8.98917 6.22091L5.52487 4.22126L12.9892 -8.71025V6.22091H8.98917ZM8.48454 7.09515L5.0166 5.1018L5.02024 5.09549L8.48454 7.09515ZM7.00484 7.49299L5.01618 10.9636L5.0074 10.9586L4.99864 10.9535L7.00484 7.49299ZM6.59093 6.95343L10.4542 5.91644L10.4554 5.92093L6.59093 6.95343ZM6.68014 6.27941L3.21856 4.27505L4.37409 2.27941H6.68014V6.27941ZM8.43192 3.2449L12.0749 4.89671L11.9964 5.06993L11.9018 5.23491L8.43192 3.2449ZM8.50703 3.07665L4.85216 1.45127L4.85218 1.45122L8.50703 3.07665ZM8.58132 2.88609L12.3518 4.22163L12.3514 4.22271L8.58132 2.88609ZM15.3001 4.4042L11.3001 4.40432V4.4042H15.3001ZM15.3003 9.81569L19.3003 9.81557V9.81569H15.3003ZM15.0121 10.5127L17.8432 13.3385L17.8405 13.3411L15.0121 10.5127ZM14.315 10.8011V14.8011H0.161305L12.2213 7.39284L14.315 10.8011ZM11.7987 1.13097V-2.86903H17.1016L15.6448 2.22985L11.7987 1.13097ZM9.0748 3.06118L12.8452 4.39691L12.8421 4.40551L9.0748 3.06118ZM8.98558 3.28946L12.6398 4.91626L12.6389 4.91837L8.98558 3.28946ZM8.86177 3.53725L11.874 6.16911L9.25735 9.16385L6.24745 6.56468L8.86177 3.53725ZM8.85816 3.53413L5.32383 1.66103L7.67399 -2.77346L11.4725 0.5067L8.85816 3.53413ZM7.13345 6.54143L10.5972 8.54197L10.5956 8.54485L7.13345 6.54143ZM7.09656 6.81776L3.23407 7.85764L3.23075 7.84514L7.09656 6.81776ZM7.26613 7.03898L5.27379 10.5075L5.26632 10.5032L7.26613 7.03898ZM8.03066 6.83367L4.56142 4.84256L4.56692 4.83304L8.03066 6.83367ZM9.02429 5.11337L5.56055 3.11273L5.56299 3.10852L9.02429 5.11337ZM9.31882 4.99169L8.2837 8.85544L8.27379 8.85276L9.31882 4.99169ZM9.94201 11.1437L9.73076 15.1381L9.70503 15.1367L9.67932 15.135L9.94201 11.1437ZM10.3013 11.0097L13.1297 13.8381L13.1273 13.8406L10.3013 11.0097ZM10.9599 7.14619L14.9599 7.14619L14.9599 7.14635L10.9599 7.14619ZM10.9597 11.4871L6.95975 11.4871L6.95975 11.487L10.9597 11.4871ZM11.7482 11.814L14.5793 14.6397L14.5739 14.6451L11.7482 11.814ZM12.4068 7.14619L16.4068 7.14619L16.4068 7.14638L12.4068 7.14619ZM12.4067 10.6425L8.40665 10.6425L8.40665 10.6423L12.4067 10.6425ZM13.1953 11.0093L16.0211 13.8404L16.0184 13.8431L13.1953 11.0093ZM13.8539 7.14601L17.8539 7.14601L17.8539 7.1465L13.8539 7.14601ZM13.8536 9.81581L9.85356 9.81581L9.85356 9.81532L13.8536 9.81581ZM14.6415 10.1428L17.47 12.9712L17.4673 12.9739L14.6415 10.1428ZM14.7765 9.81581L10.7765 9.81581L10.7765 9.81569L14.7765 9.81581ZM14.7767 4.40433L18.7767 4.40433L18.7767 4.40445L14.7767 4.40433ZM11.7987 1.13102V5.13102H6.49578L7.95261 0.0321379L11.7987 1.13102ZM14.315 14.8011C13.3969 14.8011 12.5971 14.5459 11.9634 14.2061L15.7438 7.15571C15.3866 6.96416 14.898 6.80112 14.315 6.80112V14.8011ZM17.8536 10.6809V10.6829H9.85357V10.6809H17.8536ZM17.8536 10.6829C17.8536 12.0041 17.3318 13.2723 16.3898 14.2119L10.7404 8.54754C10.1703 9.11613 9.85357 9.88902 9.85357 10.6829H17.8536ZM16.3935 14.2081C15.4568 15.1449 14.1917 15.6682 12.8683 15.6682V7.66816C12.0717 7.66816 11.3015 7.98646 10.7367 8.55127L16.3935 14.2081ZM12.8683 15.6682C11.9391 15.6682 11.1293 15.407 10.4879 15.0577L14.3139 8.03196C13.952 7.83484 13.4574 7.66816 12.8683 7.66816V15.6682ZM16.3941 11.7783C16.3257 12.9487 15.8461 14.1119 14.9483 15.0107L9.28844 9.35682C8.73461 9.91123 8.44794 10.6235 8.40772 11.3114L16.3941 11.7783ZM14.9468 15.0122C14.0098 15.9492 12.7445 16.4722 11.4214 16.4722V8.47223C10.6253 8.47223 9.85499 8.79026 9.28992 9.35534L14.9468 15.0122ZM11.4214 16.4722C8.73857 16.4722 6.60254 14.3688 6.44887 11.7819L14.4348 11.3075C14.3424 9.75244 13.0569 8.47223 11.4214 8.47223V16.4722ZM12.3437 15.0636C11.588 15.4721 10.6624 15.7228 9.65126 15.6578L10.1641 7.67426C9.53089 7.63358 8.97163 7.79244 8.53995 8.02575L12.3437 15.0636ZM9.64593 15.6575C6.90961 15.478 4.98917 13.1742 4.98917 10.6525H12.9892C12.9892 9.2002 11.8755 7.78649 10.1695 7.67461L9.64593 15.6575ZM4.98917 10.6525V6.22091H12.9892V10.6525H4.98917ZM12.4535 8.22057L11.9488 9.0948L5.02024 5.09549L5.52487 4.22126L12.4535 8.22057ZM11.9525 9.08849C11.043 10.6708 9.35683 11.6371 7.5452 11.6371V3.63714C6.5083 3.63714 5.54168 4.1883 5.01661 5.10181L11.9525 9.08849ZM7.5452 11.6371C6.65731 11.6371 5.78546 11.4044 5.01618 10.9636L8.99351 4.02237C8.5545 3.77081 8.05557 3.63714 7.5452 3.63714V11.6371ZM4.99864 10.9535C3.88344 10.307 3.06317 9.24609 2.72648 7.98594L10.4554 5.92093C10.241 5.11868 9.71496 4.44056 9.01104 4.03247L4.99864 10.9535ZM2.72768 7.99043C2.38996 6.73226 2.56803 5.39853 3.21856 4.27505L10.1417 8.28377C10.5545 7.57096 10.6689 6.71642 10.4542 5.91644L2.72768 7.99043ZM6.68014 2.27941C4.71799 2.79373 3.2493 4.22288 3.23827 4.24138C3.23459 4.24762 3.22908 4.25699 3.22727 4.26008C3.22445 4.2649 3.22229 4.26863 3.22198 4.26916C3.22124 4.27042 3.22071 4.27135 3.22051 4.27168C3.22028 4.27209 3.22013 4.27234 3.22012 4.27236C3.2201 4.2724 3.22026 4.27211 3.22068 4.27139C3.22108 4.2707 3.22161 4.26978 3.22229 4.26861C3.22506 4.26382 3.22942 4.25627 3.23543 4.24587C3.24737 4.22521 3.26502 4.19466 3.28767 4.15546C3.33292 4.07711 3.39774 3.96489 3.4759 3.82955C3.63219 3.55891 3.84165 3.19618 4.05426 2.82795C4.48255 2.08615 4.91553 1.33605 4.96207 1.2549L11.9018 5.23491C11.8476 5.32937 11.4048 6.09652 10.9824 6.82807C10.7697 7.19652 10.5601 7.55948 10.4036 7.83037C10.3254 7.9658 10.2604 8.0783 10.215 8.15699C10.1923 8.1963 10.1743 8.22735 10.162 8.24865C10.1559 8.25923 10.151 8.26776 10.1475 8.27379C10.1458 8.27668 10.1441 8.2797 10.1426 8.28231C10.142 8.28335 10.1405 8.28581 10.1389 8.28862C10.1384 8.2895 10.1361 8.29349 10.1332 8.29848C10.1313 8.30166 10.1258 8.3111 10.122 8.31738C10.111 8.33592 8.64229 9.76509 6.68014 10.2794V2.27941ZM4.78891 1.59309C4.78789 1.59534 4.78914 1.59261 4.79403 1.58168C4.79827 1.57221 4.8037 1.56006 4.81009 1.54573C4.82284 1.51715 4.83792 1.48327 4.85216 1.45127L12.1619 4.70203C12.1361 4.76005 12.0945 4.85362 12.0749 4.89671L4.78891 1.59309ZM4.85218 1.45122C4.83255 1.49535 4.81957 1.52822 4.81351 1.54392C4.80776 1.55887 4.80609 1.56402 4.81125 1.54946L12.3514 4.22271C12.3182 4.31632 12.2535 4.49618 12.1619 4.70208L4.85218 1.45122ZM4.81087 1.55055C5.87214 -1.44561 8.61085 -3.39257 11.7987 -3.39257V4.60743C11.853 4.60743 11.9869 4.586 12.131 4.48391C12.2749 4.38206 12.3362 4.2656 12.3518 4.22163L4.81087 1.55055ZM11.7987 -3.39257C16.2374 -3.39257 19.3001 0.412685 19.3001 4.4042H11.3001C11.3001 4.36239 11.2857 4.38127 11.3329 4.43246C11.3579 4.45952 11.4073 4.50282 11.4904 4.54101C11.5776 4.58107 11.6856 4.60743 11.7987 4.60743V-3.39257ZM19.3001 4.40408L19.3003 9.81557L11.3003 9.81581L11.3001 4.40432L19.3001 4.40408ZM19.3003 9.81569C19.3003 11.1375 18.7784 12.4016 17.8432 13.3385L12.1811 7.68687C11.6175 8.2515 11.3003 9.02067 11.3003 9.81569H19.3003ZM17.8405 13.3411C16.9033 14.2783 15.638 14.8011 14.315 14.8011V6.80114C13.5194 6.80114 12.749 7.11898 12.1837 7.68425L17.8405 13.3411ZM12.2213 7.39284L12.2214 7.39282L16.4087 14.2094L16.4087 14.2094L12.2213 7.39284ZM11.7987 5.13097C11.9299 5.13097 12.1764 5.0869 12.431 4.90648C12.685 4.72648 12.8044 4.51192 12.8452 4.3969L5.30441 1.72545C6.29542 -1.07192 8.81832 -2.86903 11.7987 -2.86903V5.13097ZM12.8421 4.40551C12.8065 4.50533 12.7369 4.69818 12.6398 4.91626L5.33134 1.66266C5.3143 1.70092 5.30395 1.72736 5.30078 1.73557C5.29796 1.74288 5.29905 1.74044 5.30747 1.71684L12.8421 4.40551ZM12.6389 4.91837C12.6167 4.96812 12.5932 5.02093 12.5734 5.06454C12.5576 5.09952 12.5206 5.18122 12.4758 5.27084C12.4286 5.36544 12.329 5.55815 12.1756 5.78143C12.097 5.89569 12.0235 5.99031 11.9631 6.06392C11.9353 6.09783 11.9121 6.12499 11.898 6.14146C11.8907 6.14983 11.8848 6.15671 11.881 6.16101C11.8775 6.16503 11.8744 6.16865 11.874 6.16911L5.84958 0.905384C5.87177 0.879981 5.72752 1.03923 5.58248 1.25027C5.4397 1.45802 5.35129 1.63134 5.31949 1.69497C5.29019 1.75362 5.27301 1.79275 5.28519 1.76583C5.29347 1.74754 5.30616 1.71911 5.33228 1.66054L12.6389 4.91837ZM6.24745 6.56468L6.24384 6.56156L11.4725 0.5067L11.4761 0.509815L6.24745 6.56468ZM12.3925 5.40723C12.2126 5.7466 11.7509 6.54445 10.5972 8.54197L3.66966 4.5409C4.89486 2.41955 5.23409 1.83037 5.32383 1.66103L12.3925 5.40723ZM10.5956 8.54485C11.0774 7.7122 11.2095 6.72026 10.9624 5.79038L3.23075 7.84514C2.93376 6.72765 3.09176 5.53958 3.67133 4.53802L10.5956 8.54485ZM10.959 5.77788C10.7108 4.85603 10.106 4.05971 9.26593 3.57477L5.26632 10.5032C4.25866 9.9215 3.53278 8.9671 3.23409 7.85764L10.959 5.77788ZM9.25845 3.57046C7.61023 2.62372 5.51758 3.1766 4.56144 4.84257L11.4999 8.82476C10.2473 11.0073 7.4422 11.753 5.2738 10.5075L9.25845 3.57046ZM4.56692 4.83304L5.56056 3.11274L12.488 7.114L11.4944 8.8343L4.56692 4.83304ZM5.56299 3.10852C6.52185 1.45309 8.48276 0.621476 10.3639 1.13061L8.27379 8.85276C9.92464 9.29958 11.6455 8.56865 12.4856 7.11821L5.56299 3.10852ZM10.3539 1.12794C12.2191 1.62763 13.5128 3.31764 13.5128 5.24456H5.51283C5.51283 6.93468 6.64747 8.41707 8.28371 8.85543L10.3539 1.12794ZM13.5128 5.24456V10.6527H5.51283V5.24456H13.5128ZM13.5128 10.6527C13.5128 9.05501 12.3153 7.29122 10.2047 7.15231L9.67932 15.135C7.09539 14.965 5.51283 12.7607 5.51283 10.6527H13.5128ZM10.1533 7.14925C9.22907 7.10038 8.23055 7.42492 7.47536 8.1788L13.1273 13.8406C12.1809 14.7854 10.9278 15.2014 9.73076 15.1381L10.1533 7.14925ZM7.47289 8.18126C6.8056 8.84855 6.43612 9.75189 6.43612 10.6832H14.4361C14.4361 11.8621 13.9709 12.997 13.1297 13.8381L7.47289 8.18126ZM6.43612 10.6832V7.14619H14.4361V10.6832H6.43612ZM6.43612 7.14619C6.43612 4.79241 8.34423 2.8843 10.698 2.8843V10.8843C12.7625 10.8843 14.4361 9.21069 14.4361 7.14619H6.43612ZM10.698 2.8843C13.0502 2.8843 14.9599 4.79066 14.9599 7.14619H6.95991C6.95991 9.21212 8.63511 10.8843 10.698 10.8843V2.8843ZM14.9599 7.14635L14.9597 11.4873L6.95975 11.487L6.95991 7.14604L14.9599 7.14635ZM14.9597 11.4871C14.9597 9.53249 13.376 7.94878 11.4214 7.94878V15.9488C8.95775 15.9488 6.95975 13.9508 6.95975 11.4871H14.9597ZM11.4214 7.94878C10.4915 7.94878 9.5896 8.31703 8.92253 8.98282L14.5739 14.6451C13.7327 15.4848 12.5986 15.9488 11.4214 15.9488V7.94878ZM8.91713 8.98821C8.25126 9.65534 7.88302 10.5573 7.88302 11.4871H15.883C15.883 12.6643 15.419 13.7985 14.5793 14.6397L8.91713 8.98821ZM7.88302 11.4871V7.14619H15.883V11.4871H7.88302ZM7.88302 7.14619C7.88302 4.79408 9.78931 2.88429 12.1449 2.88429V10.8843C14.2109 10.8843 15.883 9.20902 15.883 7.14619H7.88302ZM12.1449 2.88429C14.4971 2.88429 16.4068 4.79062 16.4068 7.14619H8.40682C8.40682 9.21215 10.082 10.8843 12.1449 10.8843V2.88429ZM16.4068 7.14638L16.4067 10.6427L8.40665 10.6423L8.40682 7.146L16.4068 7.14638ZM16.4067 10.6425V10.6832H8.40665V10.6425H16.4067ZM16.4067 10.6832C16.4067 8.72644 14.821 7.14464 12.8685 7.14464V15.1446C10.4066 15.1446 8.40665 13.1486 8.40665 10.6832H16.4067ZM12.8685 7.14464C11.9282 7.14464 11.0304 7.51982 10.3722 8.17562L16.0184 13.8431C15.185 14.6734 14.0557 15.1446 12.8685 15.1446V7.14464ZM10.3695 8.17825C9.69922 8.8473 9.33009 9.75236 9.33009 10.683H17.3301C17.3301 11.8613 16.8652 12.9979 16.0211 13.8404L10.3695 8.17825ZM9.33009 10.683V7.14601H17.3301V10.683H9.33009ZM9.33009 7.14601C9.33009 4.79382 11.2365 2.88411 13.592 2.88411V10.8841C15.6579 10.8841 17.3301 9.20891 17.3301 7.14601H9.33009ZM13.592 2.88411C15.9441 2.88411 17.8539 4.79042 17.8539 7.14601H9.85389C9.85389 9.21198 11.5291 10.8841 13.592 10.8841V2.88411ZM17.8539 7.1465L17.8536 9.81631L9.85356 9.81532L9.85389 7.14552L17.8539 7.1465ZM17.8536 9.81581C17.8536 7.86325 16.2717 6.27762 14.315 6.27762V14.2776C11.8497 14.2776 9.85356 12.2777 9.85356 9.81581H17.8536ZM14.315 6.27762C13.3805 6.27762 12.4797 6.6491 11.8158 7.31173L17.4673 12.9739C16.6296 13.81 15.4972 14.2776 14.315 14.2776V6.27762ZM11.8131 7.31439C11.1434 7.98406 10.7765 8.8882 10.7765 9.81581H18.7765C18.7765 10.9907 18.3141 12.1271 17.47 12.9712L11.8131 7.31439ZM10.7765 9.81569L10.7767 4.4042L18.7767 4.40445L18.7765 9.81594L10.7765 9.81569ZM10.7767 4.40433C10.7767 4.49079 10.8094 4.634 10.9446 4.78263C11.085 4.93696 11.3818 5.13102 11.7987 5.13102V-2.86898C15.9976 -2.86898 18.7767 0.755002 18.7767 4.40433H10.7767ZM7.95261 0.0321379L7.95262 0.0320845L15.6448 2.22985L15.6448 2.22991L7.95261 0.0321379Z" fill="#331A57" mask="url(#path-1-inside-1_211_2339)"/>
<mask id="path-3-inside-2_211_2339" fill="white">
<path d="M4.02536 14.5623L7.8257 12.2825C8.28389 12.0073 8.87344 12.1242 9.16732 12.5488C9.27457 12.7034 9.32934 12.8837 9.33787 13.0672C9.47956 12.9932 9.63372 12.953 9.79065 12.953C9.87101 12.953 9.95169 12.963 10.0314 12.9829C10.2867 13.0467 10.5019 13.2062 10.6372 13.4319C10.7727 13.6579 10.8122 13.9227 10.7484 14.1777C10.6895 14.4137 10.546 14.6123 10.3464 14.7486C10.486 14.8309 10.6064 14.9433 10.692 15.0863C10.8274 15.3122 10.8669 15.5769 10.8033 15.8323C10.7395 16.0873 10.58 16.3024 10.354 16.4381L10.3527 16.4389C10.4898 16.5211 10.608 16.6323 10.6926 16.7731C10.8283 16.9991 10.8678 17.2639 10.804 17.5193C10.74 17.7744 10.5805 17.9896 10.3548 18.1251L5.71453 20.9089C4.84848 21.4282 3.8473 21.6075 2.89581 21.4131C1.93581 21.217 1.14075 20.6652 0.657329 19.8593C-0.10771 18.5843 0.00694251 17.0778 0.95596 15.9281C0.99942 15.8756 1.04222 15.8221 1.08109 15.7667C1.12225 15.7081 1.1703 15.6393 1.1867 15.6157C1.28493 15.4402 2.88781 12.5523 2.88764 12.5526C3.04951 12.2605 3.35289 12.0952 3.66578 12.0954C3.81174 12.0954 3.95982 12.1313 4.09643 12.2071C4.26141 12.2992 4.39998 12.4335 4.4969 12.5954C4.69616 12.9275 4.70321 13.343 4.5156 13.6794L4.02536 14.5623ZM4.04815 12.8646C3.99731 12.7798 3.92745 12.7123 3.84201 12.6644C3.66539 12.5666 3.44302 12.6303 3.34578 12.8062C2.19883 14.8726 1.80785 15.5767 1.65697 15.8273L1.66041 15.8281C1.64779 15.8701 1.64779 15.8701 1.50971 16.0674C1.4628 16.1341 1.4118 16.1983 1.35982 16.2614C0.543769 17.2501 0.449016 18.4943 1.10612 19.5899C1.51315 20.2685 2.18586 20.7338 3.00039 20.9001C3.82379 21.0675 4.69164 20.9117 5.44488 20.4598L10.0856 17.6759C10.1915 17.6124 10.2663 17.5115 10.2961 17.392C10.326 17.2726 10.3075 17.1485 10.2438 17.0425C10.113 16.8244 9.82877 16.7527 9.61066 16.8841L7.32133 18.2575C7.19736 18.332 7.03631 18.292 6.96203 18.1678C6.88758 18.0439 6.92775 17.883 7.05173 17.8085L9.34122 16.4351L10.0848 15.989C10.1907 15.9254 10.2657 15.8245 10.2955 15.7053C10.3253 15.5858 10.3068 15.4615 10.2432 15.3557C10.1122 15.1374 9.82795 15.0664 9.61001 15.1973L6.57697 17.0168C6.45267 17.0914 6.29211 17.0511 6.21766 16.9271C6.14321 16.8031 6.18355 16.6422 6.30737 16.5678L10.0298 14.3347C10.1358 14.2711 10.2106 14.1704 10.2404 14.0508C10.2702 13.9314 10.2517 13.8073 10.1882 13.7014C10.1248 13.5956 10.0239 13.5208 9.90438 13.491C9.78417 13.4611 9.66052 13.4796 9.55491 13.543L8.86582 13.9564C8.86565 13.9564 8.86565 13.9565 8.86549 13.9565H8.86532L5.83246 15.776C5.70815 15.8508 5.54744 15.8105 5.47315 15.6863C5.3987 15.5624 5.43904 15.4015 5.56285 15.327L8.59589 13.5075C8.70183 13.4439 8.77677 13.343 8.80662 13.2238C8.83942 13.093 8.81449 12.9591 8.73675 12.847C8.60195 12.652 8.31366 12.6002 8.09506 12.7315L3.45772 15.5135C3.35621 15.5742 3.22616 15.5594 3.14105 15.4773C3.05577 15.3949 3.03658 15.2655 3.09398 15.1621L4.05827 13.4247C4.15503 13.2511 4.15125 13.0366 4.0481 12.8647L4.04815 12.8646Z"/>
</mask>
<path d="M4.02536 14.5623L7.8257 12.2825C8.28389 12.0073 8.87344 12.1242 9.16732 12.5488C9.27457 12.7034 9.32934 12.8837 9.33787 13.0672C9.47956 12.9932 9.63372 12.953 9.79065 12.953C9.87101 12.953 9.95169 12.963 10.0314 12.9829C10.2867 13.0467 10.5019 13.2062 10.6372 13.4319C10.7727 13.6579 10.8122 13.9227 10.7484 14.1777C10.6895 14.4137 10.546 14.6123 10.3464 14.7486C10.486 14.8309 10.6064 14.9433 10.692 15.0863C10.8274 15.3122 10.8669 15.5769 10.8033 15.8323C10.7395 16.0873 10.58 16.3024 10.354 16.4381L10.3527 16.4389C10.4898 16.5211 10.608 16.6323 10.6926 16.7731C10.8283 16.9991 10.8678 17.2639 10.804 17.5193C10.74 17.7744 10.5805 17.9896 10.3548 18.1251L5.71453 20.9089C4.84848 21.4282 3.8473 21.6075 2.89581 21.4131C1.93581 21.217 1.14075 20.6652 0.657329 19.8593C-0.10771 18.5843 0.00694251 17.0778 0.95596 15.9281C0.99942 15.8756 1.04222 15.8221 1.08109 15.7667C1.12225 15.7081 1.1703 15.6393 1.1867 15.6157C1.28493 15.4402 2.88781 12.5523 2.88764 12.5526C3.04951 12.2605 3.35289 12.0952 3.66578 12.0954C3.81174 12.0954 3.95982 12.1313 4.09643 12.2071C4.26141 12.2992 4.39998 12.4335 4.4969 12.5954C4.69616 12.9275 4.70321 13.343 4.5156 13.6794L4.02536 14.5623ZM4.04815 12.8646C3.99731 12.7798 3.92745 12.7123 3.84201 12.6644C3.66539 12.5666 3.44302 12.6303 3.34578 12.8062C2.19883 14.8726 1.80785 15.5767 1.65697 15.8273L1.66041 15.8281C1.64779 15.8701 1.64779 15.8701 1.50971 16.0674C1.4628 16.1341 1.4118 16.1983 1.35982 16.2614C0.543769 17.2501 0.449016 18.4943 1.10612 19.5899C1.51315 20.2685 2.18586 20.7338 3.00039 20.9001C3.82379 21.0675 4.69164 20.9117 5.44488 20.4598L10.0856 17.6759C10.1915 17.6124 10.2663 17.5115 10.2961 17.392C10.326 17.2726 10.3075 17.1485 10.2438 17.0425C10.113 16.8244 9.82877 16.7527 9.61066 16.8841L7.32133 18.2575C7.19736 18.332 7.03631 18.292 6.96203 18.1678C6.88758 18.0439 6.92775 17.883 7.05173 17.8085L9.34122 16.4351L10.0848 15.989C10.1907 15.9254 10.2657 15.8245 10.2955 15.7053C10.3253 15.5858 10.3068 15.4615 10.2432 15.3557C10.1122 15.1374 9.82795 15.0664 9.61001 15.1973L6.57697 17.0168C6.45267 17.0914 6.29211 17.0511 6.21766 16.9271C6.14321 16.8031 6.18355 16.6422 6.30737 16.5678L10.0298 14.3347C10.1358 14.2711 10.2106 14.1704 10.2404 14.0508C10.2702 13.9314 10.2517 13.8073 10.1882 13.7014C10.1248 13.5956 10.0239 13.5208 9.90438 13.491C9.78417 13.4611 9.66052 13.4796 9.55491 13.543L8.86582 13.9564C8.86565 13.9564 8.86565 13.9565 8.86549 13.9565H8.86532L5.83246 15.776C5.70815 15.8508 5.54744 15.8105 5.47315 15.6863C5.3987 15.5624 5.43904 15.4015 5.56285 15.327L8.59589 13.5075C8.70183 13.4439 8.77677 13.343 8.80662 13.2238C8.83942 13.093 8.81449 12.9591 8.73675 12.847C8.60195 12.652 8.31366 12.6002 8.09506 12.7315L3.45772 15.5135C3.35621 15.5742 3.22616 15.5594 3.14105 15.4773C3.05577 15.3949 3.03658 15.2655 3.09398 15.1621L4.05827 13.4247C4.15503 13.2511 4.15125 13.0366 4.0481 12.8647L4.04815 12.8646Z" fill="#331A57"/>
<path d="M4.02536 14.5623L6.08309 17.9924L-6.71871 25.6722L0.528276 12.6205L4.02536 14.5623ZM7.8257 12.2825L9.88514 15.7115L9.88344 15.7126L7.8257 12.2825ZM9.16732 12.5488L5.88044 14.8283L5.87832 14.8253L9.16732 12.5488ZM9.33787 13.0672L11.1888 16.6132L5.63305 19.5132L5.34218 13.2528L9.33787 13.0672ZM10.0314 12.9829L10.9978 9.10136L11.0009 9.10216L10.0314 12.9829ZM10.6372 13.4319L14.0677 11.3747L14.068 11.3753L10.6372 13.4319ZM10.7484 14.1777L6.86732 13.2095L6.86794 13.2071L10.7484 14.1777ZM10.3464 14.7486L8.31413 18.1938L2.8917 14.9952L8.09085 11.4452L10.3464 14.7486ZM10.692 15.0863L7.26113 17.1428L7.25991 17.1408L10.692 15.0863ZM10.8033 15.8323L14.6846 16.7995L14.6837 16.803L10.8033 15.8323ZM10.354 16.4381L8.23398 13.0461L8.2645 13.027L8.29535 13.0085L10.354 16.4381ZM10.3527 16.4389L8.29651 19.87L2.69079 16.5106L8.23267 13.0469L10.3527 16.4389ZM10.6926 16.7731L14.1215 14.7133L14.1224 14.7148L10.6926 16.7731ZM10.804 17.5193L14.6847 18.4889L14.684 18.4917L10.804 17.5193ZM10.3548 18.1251L12.4138 21.5544L12.4126 21.5552L10.3548 18.1251ZM5.71453 20.9089L7.77231 24.339L7.77173 24.3393L5.71453 20.9089ZM2.89581 21.4131L2.09536 25.3322L2.09512 25.3322L2.89581 21.4131ZM0.657329 19.8593L4.08728 17.8013L4.08751 17.8017L0.657329 19.8593ZM0.95596 15.9281L-2.12893 13.3818L-2.12475 13.3767L0.95596 15.9281ZM1.08109 15.7667L-2.19407 13.4703L-2.19107 13.466L1.08109 15.7667ZM1.1867 15.6157L4.67702 17.5695L4.58255 17.7383L4.47225 17.8971L1.1867 15.6157ZM2.88764 12.5526L6.3863 14.4915L-0.690065 10.7637L2.88764 12.5526ZM3.66578 12.0954V16.0954L3.66363 16.0954L3.66578 12.0954ZM4.09643 12.2071L6.03646 8.70899L6.04724 8.71501L4.09643 12.2071ZM4.4969 12.5954L1.06693 14.6534L1.06509 14.6503L4.4969 12.5954ZM4.5156 13.6794L1.01851 11.7376L1.02235 11.7307L4.5156 13.6794ZM4.04815 12.8646L7.47872 10.8076L8.86608 13.1214L7.24062 15.2746L4.04815 12.8646ZM3.84201 12.6644L5.77878 9.16454L5.7882 9.16975L5.79758 9.17501L3.84201 12.6644ZM3.34578 12.8062L6.84683 14.7409L6.84313 14.7475L3.34578 12.8062ZM1.65697 15.8273L0.730487 19.7185L-4.59205 18.4513L-1.76981 13.764L1.65697 15.8273ZM1.66041 15.8281L2.58689 11.9369L6.71239 12.9192L5.49089 16.9803L1.66041 15.8281ZM1.50971 16.0674L4.78678 18.361L4.78243 18.3672L1.50971 16.0674ZM1.35982 16.2614L4.44775 18.804L4.44477 18.8076L1.35982 16.2614ZM1.10612 19.5899L-2.32414 21.6474L-2.32421 21.6473L1.10612 19.5899ZM3.00039 20.9001L2.20331 24.8199L2.20028 24.8192L3.00039 20.9001ZM5.44488 20.4598L3.38688 17.0298L3.38717 17.0296L5.44488 20.4598ZM10.0856 17.6759L8.02787 14.2457L8.02994 14.2445L10.0856 17.6759ZM10.2961 17.392L6.41526 16.4231L6.41557 16.4219L10.2961 17.392ZM10.2438 17.0425L6.81481 19.1021L6.81387 19.1005L10.2438 17.0425ZM9.61066 16.8841L11.6743 20.3107L11.6685 20.3142L9.61066 16.8841ZM7.32133 18.2575L5.26204 14.8284L5.26352 14.8275L7.32133 18.2575ZM6.96203 18.1678L10.3912 16.1085L10.3944 16.1139L6.96203 18.1678ZM7.05173 17.8085L4.99244 14.3793L4.99402 14.3784L7.05173 17.8085ZM9.34122 16.4351L11.399 19.8652L11.3989 19.8652L9.34122 16.4351ZM10.0848 15.989L12.1443 19.4181L12.1425 19.4191L10.0848 15.989ZM10.2955 15.7053L14.1764 16.6742L14.1758 16.6767L10.2955 15.7053ZM10.2432 15.3557L6.81557 17.4176L6.81367 17.4144L10.2432 15.3557ZM9.61001 15.1973L11.6691 18.6266L11.6677 18.6274L9.61001 15.1973ZM6.57697 17.0168L4.51834 13.5872L4.51925 13.5867L6.57697 17.0168ZM6.21766 16.9271L9.64685 14.8678L9.64685 14.8678L6.21766 16.9271ZM6.30737 16.5678L4.24607 13.1398L4.24966 13.1376L6.30737 16.5678ZM10.0298 14.3347L12.0894 17.7637L12.0875 17.7648L10.0298 14.3347ZM10.2404 14.0508L6.35951 13.082L6.35982 13.0807L10.2404 14.0508ZM10.1882 13.7014L13.6182 11.6434L13.6196 11.6457L10.1882 13.7014ZM9.90438 13.491L10.8683 9.60884L10.8732 9.61007L9.90438 13.491ZM9.55491 13.543L7.49703 10.1129L7.49846 10.1121L9.55491 13.543ZM8.86582 13.9564L10.9237 17.3864L9.97369 17.9564H8.86582V13.9564ZM8.86532 13.9565L6.80752 10.5265L7.7575 9.95654H8.86532V13.9565ZM5.83246 15.776L3.77051 12.3485L3.77465 12.346L5.83246 15.776ZM5.47315 15.6863L8.90234 13.627L8.90553 13.6324L5.47315 15.6863ZM5.56285 15.327L3.50155 11.8991L3.50513 11.8969L5.56285 15.327ZM8.59589 13.5075L10.6554 16.9366L10.6536 16.9377L8.59589 13.5075ZM8.80662 13.2238L4.92635 12.2525L4.92662 12.2514L8.80662 13.2238ZM8.73675 12.847L5.44903 15.1253L5.44649 15.1216L8.73675 12.847ZM8.09506 12.7315L10.1553 16.1601L10.1528 16.1616L8.09506 12.7315ZM3.45772 15.5135L5.51548 18.9436L5.50996 18.9469L3.45772 15.5135ZM3.14105 15.4773L0.362972 18.3552L0.36286 18.355L3.14105 15.4773ZM3.09398 15.1621L-0.403931 13.2218L-0.40342 13.2209L3.09398 15.1621ZM4.05827 13.4247L0.560862 11.4835L0.563985 11.4779L4.05827 13.4247ZM4.0481 12.8647L0.61837 14.9231L-0.770541 12.6088L0.855629 10.4547L4.0481 12.8647ZM1.96762 11.1322L5.76796 8.85233L9.88344 15.7126L6.08309 17.9924L1.96762 11.1322ZM5.76626 8.85335C7.92904 7.55444 10.8948 8.01628 12.4563 10.2723L5.87832 14.8253C6.85207 16.2321 8.63874 16.4601 9.88514 15.7115L5.76626 8.85335ZM12.4542 10.2692C13.0341 11.1054 13.294 12.0292 13.3336 12.8815L5.34218 13.2528C5.36473 13.7381 5.515 14.3014 5.88044 14.8283L12.4542 10.2692ZM7.48692 9.52119C8.15816 9.17082 8.94356 8.95303 9.79065 8.95303V16.953C10.3239 16.953 10.801 16.8156 11.1888 16.6132L7.48692 9.52119ZM9.79065 8.95303C10.204 8.95303 10.609 9.00458 10.9978 9.10136L9.06503 16.8644C9.29435 16.9215 9.53806 16.953 9.79065 16.953V8.95303ZM11.0009 9.10216C12.287 9.42347 13.387 10.2397 14.0677 11.3747L7.20671 15.489C7.61675 16.1728 8.28643 16.6699 9.06185 16.8636L11.0009 9.10216ZM14.068 11.3753C14.747 12.508 14.9508 13.8613 14.6288 15.1484L6.86794 13.2071C6.67358 13.984 6.79831 14.8077 7.20635 15.4884L14.068 11.3753ZM14.6294 15.1459C14.3216 16.38 13.5706 17.3906 12.602 18.052L8.09085 11.4452C7.52144 11.834 7.05744 12.4474 6.86732 13.2095L14.6294 15.1459ZM12.3787 11.3034C13.0248 11.6845 13.6564 12.2507 14.124 13.0317L7.25991 17.1408C7.55628 17.6359 7.94715 17.9774 8.31413 18.1938L12.3787 11.3034ZM14.1228 13.0297C14.802 14.1628 15.0048 15.5147 14.6846 16.7995L6.92203 14.865C6.7291 15.6392 6.85286 16.4617 7.26113 17.1428L14.1228 13.0297ZM14.6837 16.803C14.3619 18.0896 13.5452 19.1878 12.4126 19.8677L8.29535 13.0085C7.61468 13.4171 7.11715 14.085 6.92289 14.8616L14.6837 16.803ZM12.474 19.8301L12.4727 19.8309L8.23267 13.0469L8.23398 13.0461L12.474 19.8301ZM12.4088 13.0078C13.0431 13.388 13.6613 13.9472 14.1215 14.7133L7.26377 18.833C7.55475 19.3173 7.93642 19.6542 8.29651 19.87L12.4088 13.0078ZM14.1224 14.7148C14.803 15.8489 15.006 17.2027 14.6847 18.4889L6.92327 16.5497C6.72951 17.3252 6.85348 18.1493 7.26289 18.8315L14.1224 14.7148ZM14.684 18.4917C14.3621 19.7759 13.5469 20.8741 12.4138 21.5544L8.29583 14.6957C7.614 15.1051 7.11793 15.773 6.92399 16.5468L14.684 18.4917ZM12.4126 21.5552L7.77231 24.339L3.65675 17.4788L8.29703 14.695L12.4126 21.5552ZM7.77173 24.3393C6.08597 25.3502 4.06979 25.7355 2.09536 25.3322L3.69627 17.4941C3.66426 17.4875 3.64152 17.4896 3.63262 17.4912C3.62417 17.4927 3.63361 17.4926 3.65733 17.4784L7.77173 24.3393ZM2.09512 25.3322C0.0897204 24.9225 -1.6852 23.7301 -2.77285 21.9169L4.08751 17.8017C4.03565 17.7152 3.96239 17.637 3.87873 17.5789C3.79623 17.5217 3.72791 17.5005 3.6965 17.4941L2.09512 25.3322ZM-2.77262 21.9173C-4.41298 19.1835 -4.15217 15.833 -2.12892 13.3818L4.04084 18.4743C4.07073 18.4381 4.13902 18.3255 4.15237 18.1498C4.16575 17.9738 4.11523 17.8479 4.08728 17.8013L-2.77262 21.9173ZM-2.12475 13.3767C-2.11612 13.3663 -2.12048 13.3714 -2.1312 13.3851C-2.14228 13.3992 -2.16493 13.4288 -2.19407 13.4703L4.35624 18.0631C4.22499 18.2503 4.1019 18.4006 4.03667 18.4794L-2.12475 13.3767ZM-2.19107 13.466C-2.15444 13.4139 -2.11085 13.3515 -2.09885 13.3342L4.47225 17.8971C4.45145 17.9271 4.39894 18.0024 4.35325 18.0673L-2.19107 13.466ZM-2.30362 13.6618C-2.25908 13.5822 -1.83969 12.827 -1.42312 12.0766C-1.2167 11.7048 -1.01333 11.3385 -0.861567 11.0651C-0.785688 10.9284 -0.722715 10.8149 -0.67871 10.7356C-0.656712 10.696 -0.639442 10.6649 -0.627674 10.6437C-0.621794 10.6331 -0.617263 10.6249 -0.614195 10.6194C-0.61267 10.6167 -0.611461 10.6145 -0.610615 10.613C-0.610209 10.6122 -0.609794 10.6115 -0.609443 10.6109C-0.609302 10.6106 -0.608976 10.61 -0.608605 10.6093C-0.608371 10.6089 -0.607717 10.6077 -0.607279 10.607C-0.605937 10.6046 4.75778 9.0167 6.46535 14.3415L-0.690065 10.7637C1.01751 16.0885 6.38121 14.5007 6.38253 14.4983C6.38295 14.4976 6.38356 14.4964 6.38375 14.4961C6.38385 14.4959 6.38403 14.4956 6.38407 14.4955C6.3841 14.4955 6.38416 14.4954 6.38415 14.4954C6.38414 14.4954 6.38415 14.4954 6.38411 14.4955C6.38408 14.4955 6.38405 14.4956 6.384 14.4957C6.3839 14.4959 6.38376 14.4961 6.38359 14.4964C6.3829 14.4976 6.38182 14.4996 6.38031 14.5023C6.37732 14.5077 6.37284 14.5158 6.36697 14.5263C6.35523 14.5475 6.33798 14.5786 6.31598 14.6182C6.27197 14.6975 6.20898 14.811 6.13308 14.9477C5.98128 15.2212 5.77781 15.5877 5.57126 15.9598C5.16187 16.6972 4.7307 17.4736 4.67702 17.5695L-2.30362 13.6618ZM-0.611012 10.6137C0.285258 8.99642 1.96126 8.09446 3.66793 8.09537L3.66363 16.0954C4.74451 16.096 5.81375 15.5246 6.3863 14.4915L-0.611012 10.6137ZM3.66578 8.09537C4.47124 8.09537 5.28959 8.2948 6.03646 8.70901L2.15641 15.7051C2.63005 15.9678 3.15223 16.0954 3.66578 16.0954V8.09537ZM6.04724 8.71501C6.82109 9.14732 7.47116 9.77632 7.92872 10.5405L1.06509 14.6503C1.32881 15.0907 1.70173 15.4511 2.14563 15.6991L6.04724 8.71501ZM7.92688 10.5374C8.85851 12.0901 8.8982 14.0337 8.00885 15.628L1.02235 11.7307C0.508212 12.6524 0.533798 13.7648 1.06693 14.6534L7.92688 10.5374ZM8.01268 15.6211L7.52244 16.504L0.528276 12.6205L1.01852 11.7376L8.01268 15.6211ZM0.617579 14.9216C0.926423 15.4367 1.36588 15.862 1.88644 16.1538L5.79758 9.17501C6.48903 9.56252 7.06821 10.123 7.47872 10.8076L0.617579 14.9216ZM1.90524 16.1642C3.6508 17.1302 5.86874 16.5109 6.84682 14.7409L-0.155255 10.8716C1.01729 8.74969 3.67998 8.00309 5.77878 9.16454L1.90524 16.1642ZM6.84313 14.7475C5.72949 16.7538 5.28264 17.5603 5.08375 17.8906L-1.76981 13.764C-1.66693 13.5932 -1.33182 12.9913 -0.151567 10.865L6.84313 14.7475ZM2.58345 11.9361L2.58689 11.9369L0.733931 19.7194L0.730487 19.7185L2.58345 11.9361ZM5.49089 16.9803C5.4907 16.9809 5.48927 16.9857 5.48769 16.9909C5.48599 16.9965 5.48327 17.0055 5.47992 17.0163C5.47336 17.0375 5.46237 17.0726 5.448 17.1154C5.41691 17.208 5.37385 17.3256 5.31533 17.4593C5.1995 17.724 5.07928 17.922 5.01666 18.0214C4.95856 18.1136 4.90356 18.1932 4.88099 18.2259C4.85261 18.267 4.81822 18.3161 4.78677 18.361L-1.76736 13.7737C-1.72977 13.72 -1.71238 13.6952 -1.70153 13.6794C-1.68487 13.6553 -1.7132 13.6953 -1.75245 13.7577C-1.79623 13.8272 -1.90546 14.005 -2.01342 14.2516C-2.12047 14.4962 -2.18117 14.7129 -2.17007 14.676L5.49089 16.9803ZM4.78243 18.3672C4.64893 18.5572 4.52325 18.7123 4.44775 18.804L-1.72811 13.7188C-1.71563 13.7037 -1.71479 13.7023 -1.72001 13.709C-1.72556 13.7162 -1.74128 13.7366 -1.76302 13.7676L4.78243 18.3672ZM4.44477 18.8076C4.52272 18.7131 4.64531 18.5 4.66897 18.1895C4.69268 17.8784 4.60365 17.6446 4.53645 17.5326L-2.32421 21.6473C-3.8566 19.0923 -3.61469 16.0046 -1.72513 13.7152L4.44477 18.8076ZM4.53638 17.5324C4.44404 17.3785 4.31841 17.246 4.17576 17.1473C4.03447 17.0496 3.9006 17.0014 3.80051 16.9809L2.20028 24.8192C0.349625 24.4414 -1.308 23.3416 -2.32414 21.6474L4.53638 17.5324ZM3.79748 16.9803C3.59618 16.9394 3.45029 16.9918 3.38688 17.0298L7.50289 23.8897C5.93299 24.8317 4.0514 25.1957 2.20331 24.8199L3.79748 16.9803ZM3.38717 17.0296L8.02787 14.2457L12.1433 21.106L7.50259 23.8899L3.38717 17.0296ZM8.02994 14.2445C7.22613 14.726 6.64314 15.5103 6.41526 16.4231L14.177 18.3608C13.8895 19.5127 13.1569 20.4988 12.1412 21.1072L8.02994 14.2445ZM6.41557 16.4219C6.18723 17.3352 6.33346 18.3007 6.81481 19.1021L13.6729 14.9829C14.2815 15.9962 14.4648 17.2099 14.1767 18.3621L6.41557 16.4219ZM6.81387 19.1005C7.81477 20.7687 9.98754 21.3265 11.6743 20.3107L7.547 13.4575C9.67 12.179 12.4112 12.8802 13.6738 14.9845L6.81387 19.1005ZM11.6685 20.3142L9.37915 21.6876L5.26352 14.8275L7.55284 13.454L11.6685 20.3142ZM9.38063 21.6867C7.36759 22.8956 4.74369 22.2506 3.52965 20.2218L10.3944 16.1139C9.32894 14.3334 7.02712 13.7684 5.26204 14.8284L9.38063 21.6867ZM3.53284 20.2271C2.32076 18.2088 2.97509 15.5908 4.99244 14.3793L9.11102 21.2377C10.8804 20.1752 11.4544 17.879 10.3912 16.1085L3.53284 20.2271ZM4.99402 14.3784L7.28352 13.005L11.3989 19.8652L9.10944 21.2387L4.99402 14.3784ZM7.28347 13.005L8.02701 12.5589L12.1425 19.4191L11.399 19.8652L7.28347 13.005ZM8.02523 12.56C7.22911 13.0382 6.64458 13.8178 6.41523 14.734L14.1758 16.6767C13.8867 17.8313 13.1523 18.8126 12.1443 19.4181L8.02523 12.56ZM6.41461 14.7364C6.18732 15.6469 6.33154 16.613 6.81557 17.4176L13.6708 13.2938C14.2821 14.31 14.4634 15.5247 14.1764 16.6742L6.41461 14.7364ZM6.81367 17.4144C7.81834 19.0881 9.99066 19.6344 11.6691 18.6266L7.55088 11.768C9.66525 10.4984 12.406 11.1868 13.6727 13.2969L6.81367 17.4144ZM11.6677 18.6274L8.63469 20.4469L4.51925 13.5867L7.55229 11.7671L11.6677 18.6274ZM8.6356 20.4464C6.61469 21.6594 3.99843 21.0012 2.78848 18.9864L9.64685 14.8678C8.5858 13.1009 6.29065 12.5234 4.51834 13.5872L8.6356 20.4464ZM2.78848 18.9864C1.57458 16.965 2.23415 14.3496 4.24607 13.1398L8.36866 19.9958C10.133 18.9349 10.7118 16.6412 9.64685 14.8678L2.78848 18.9864ZM4.24966 13.1376L7.97213 10.9046L12.0875 17.7648L8.36507 19.9979L4.24966 13.1376ZM7.97029 10.9057C7.17228 11.385 6.58808 12.1664 6.35951 13.082L14.1213 15.0197C13.833 16.1744 13.0993 17.1572 12.0894 17.7637L7.97029 10.9057ZM6.35982 13.0807C6.13154 13.9938 6.27789 14.9575 6.75689 15.757L13.6196 11.6457C14.2255 12.6571 14.4089 13.869 14.121 15.021L6.35982 13.0807ZM6.75828 15.7593C7.23975 16.5618 8.02325 17.1441 8.93552 17.3719L10.8732 9.61007C12.0246 9.89751 13.0098 10.6294 13.6182 11.6434L6.75828 15.7593ZM8.94047 17.3731C9.84519 17.5977 10.8078 17.4555 11.6114 16.9738L7.49846 10.1121C8.51325 9.50381 9.72315 9.32451 10.8683 9.60884L8.94047 17.3731ZM11.6128 16.973L10.9237 17.3864L6.80794 10.5263L7.49704 10.1129L11.6128 16.973ZM8.86582 17.9564C9.03305 17.9564 9.20917 17.9459 9.39217 17.9216C9.48344 17.9095 9.57546 17.8941 9.66799 17.8751C9.76055 17.8562 9.85272 17.8339 9.94431 17.8082C10.0359 17.7826 10.1259 17.7538 10.2143 17.7222C10.3026 17.6906 10.3883 17.6564 10.4712 17.6201C10.5541 17.5837 10.6334 17.5456 10.7091 17.5063C10.7849 17.467 10.8564 17.4268 10.9237 17.3864C11.0584 17.3056 11.1747 17.225 11.2726 17.1512C11.37 17.0778 11.4504 17.0103 11.5121 16.9558C11.5431 16.9285 11.5702 16.9037 11.5929 16.8826C11.6155 16.8615 11.6347 16.8431 11.6495 16.8288C11.6641 16.8146 11.6758 16.803 11.6829 16.796C11.6865 16.7924 11.6895 16.7895 11.6912 16.7877C11.6928 16.7861 11.6942 16.7847 11.694 16.785C11.694 16.785 11.694 16.785 11.6939 16.785C11.6939 16.785 11.6939 16.7851 11.6938 16.7852C11.6937 16.7853 11.6935 16.7854 11.6933 16.7857C11.6929 16.7861 11.6921 16.7868 11.6912 16.7877C11.6895 16.7895 11.6865 16.7924 11.6829 16.796C11.6758 16.803 11.6641 16.8146 11.6494 16.8288C11.6347 16.8431 11.6155 16.8615 11.5929 16.8826C11.5701 16.9038 11.543 16.9286 11.512 16.9559C11.4503 17.0103 11.3699 17.0779 11.2726 17.1513C11.1746 17.2251 11.0582 17.3057 10.9235 17.3865C10.8562 17.4269 10.7847 17.4671 10.709 17.5064C10.6332 17.5458 10.5539 17.5839 10.471 17.6202C10.3881 17.6565 10.3024 17.6907 10.2141 17.7224C10.1257 17.754 10.0357 17.7827 9.94409 17.8084C9.85249 17.834 9.76031 17.8563 9.66775 17.8753C9.57521 17.8942 9.48318 17.9096 9.3919 17.9218C9.20888 17.946 9.03274 17.9565 8.86549 17.9565V9.95654C8.69826 9.95654 8.52214 9.96703 8.33914 9.99133C8.24787 10.0034 8.15585 10.0189 8.06331 10.0378C7.97076 10.0568 7.87859 10.079 7.787 10.1047C7.69539 10.1303 7.60536 10.1591 7.51702 10.1907C7.4287 10.2223 7.34304 10.2565 7.26012 10.2928C7.17722 10.3292 7.0979 10.3673 7.02216 10.4066C6.94645 10.4459 6.87494 10.4861 6.80762 10.5265C6.67294 10.6073 6.55659 10.6879 6.45866 10.7617C6.36128 10.8351 6.28089 10.9026 6.21921 10.9571C6.18822 10.9844 6.16111 11.0092 6.1384 11.0304C6.11576 11.0515 6.0966 11.0698 6.08183 11.0841C6.06719 11.0983 6.05546 11.1099 6.04838 11.1169C6.04476 11.1205 6.04184 11.1234 6.04008 11.1252C6.03846 11.1268 6.03708 11.1282 6.03732 11.1279C6.03732 11.1279 6.03734 11.1279 6.03736 11.1279C6.03738 11.1279 6.03745 11.1278 6.03749 11.1278C6.0376 11.1277 6.03778 11.1275 6.03801 11.1272C6.03845 11.1268 6.03918 11.1261 6.04008 11.1252C6.04185 11.1234 6.04477 11.1205 6.04839 11.1169C6.05548 11.1099 6.06721 11.0983 6.08186 11.0841C6.09664 11.0698 6.11581 11.0514 6.13845 11.0303C6.16116 11.0091 6.18828 10.9844 6.21927 10.957C6.28096 10.9026 6.36136 10.835 6.45875 10.7616C6.5567 10.6878 6.67306 10.6072 6.80776 10.5264C6.87508 10.486 6.9466 10.4458 7.02231 10.4065C7.09806 10.3672 7.17739 10.329 7.26029 10.2927C7.34322 10.2564 7.42888 10.2222 7.51722 10.1906C7.60556 10.1589 7.6956 10.1302 7.78721 10.1045C7.87882 10.0789 7.971 10.0566 8.06356 10.0377C8.1561 10.0187 8.24813 10.0033 8.33941 9.99117C8.52243 9.96687 8.69857 9.95638 8.86582 9.95638V17.9564ZM8.86549 17.9565H8.86532V9.95654H8.86549V17.9565ZM10.9231 17.3866L7.89026 19.2061L3.77465 12.346L6.80752 10.5265L10.9231 17.3866ZM7.8944 19.2036C5.87358 20.4193 3.25106 19.7628 2.04077 17.7403L8.90553 13.6324C7.84381 11.8581 5.54272 11.2823 3.77051 12.3485L7.8944 19.2036ZM2.04397 17.7456C0.830072 15.7242 1.48962 13.1089 3.50155 11.8991L7.62415 18.755C9.38846 17.6941 9.96732 15.4005 8.90233 13.627L2.04397 17.7456ZM3.50513 11.8969L6.53817 10.0774L10.6536 16.9377L7.62057 18.7572L3.50513 11.8969ZM6.53635 10.0785C5.74023 10.5567 5.1557 11.3363 4.92635 12.2525L12.6869 14.1952C12.3978 15.3498 11.6634 16.3311 10.6554 16.9366L6.53635 10.0785ZM4.92662 12.2514C4.67445 13.2576 4.88116 14.3059 5.44904 15.1253L12.0245 10.5686C12.7478 11.6124 13.0044 12.9284 12.6866 14.1963L4.92662 12.2514ZM5.44649 15.1216C6.65225 16.8658 8.7851 16.9835 10.1553 16.1601L6.0348 9.30291C7.84222 8.21683 10.5517 8.43821 12.027 10.5723L5.44649 15.1216ZM10.1528 16.1616L5.51547 18.9436L1.39996 12.0834L6.0373 9.30141L10.1528 16.1616ZM5.50996 18.9469C3.86244 19.9317 1.75197 19.696 0.362972 18.3552L5.91913 12.5994C4.70035 11.4229 2.84997 11.2167 1.40548 12.0801L5.50996 18.9469ZM0.36286 18.355C-1.02707 17.0132 -1.33869 14.907 -0.403931 13.2218L6.5919 17.1023C7.41186 15.6241 7.13862 13.7766 5.91924 12.5995L0.36286 18.355ZM-0.40342 13.2209L0.560866 11.4835L7.55567 15.3659L6.59138 17.1032L-0.40342 13.2209ZM0.563985 11.4779C-0.0415563 12.5648 -0.00910212 13.8776 0.61837 14.9231L7.47783 10.8063C8.3116 12.1955 8.35161 13.9373 7.55255 15.3715L0.563985 11.4779ZM0.855629 10.4547L0.855678 10.4546L7.24062 15.2746L7.24057 15.2747L0.855629 10.4547Z" fill="#331A57" mask="url(#path-3-inside-2_211_2339)"/>
<mask id="path-5-inside-3_211_2339" fill="white">
<path d="M22.1852 19.8591C21.7019 20.6652 20.907 21.2168 19.9469 21.413C18.9952 21.607 17.9943 21.4281 17.1281 20.9087L12.4874 18.1248C12.2616 17.9893 12.1019 17.7742 12.0379 17.5186C11.9745 17.2636 12.0142 16.9988 12.1494 16.7731C12.2339 16.6321 12.3523 16.5209 12.4896 16.4387L12.4883 16.4379C12.2624 16.3025 12.1027 16.0873 12.0391 15.8321C11.9751 15.577 12.0148 15.3119 12.1503 15.086C12.2375 14.9408 12.3571 14.8274 12.4935 14.7468C12.2954 14.6106 12.1527 14.4126 12.094 14.1778C12.0301 13.9224 12.0698 13.6576 12.2052 13.4319C12.3405 13.2061 12.5558 13.0465 12.811 12.9828C12.8907 12.9627 12.9716 12.9529 13.0516 12.9529C13.2087 12.9531 13.3629 12.9929 13.5045 13.067C13.5132 12.8835 13.5678 12.7033 13.6751 12.5487C13.9691 12.1244 14.5582 12.007 15.017 12.2823L18.8173 14.5618L18.3274 13.6795C18.1395 13.3427 18.1464 12.9271 18.3456 12.5949C18.4427 12.4332 18.5814 12.2989 18.7472 12.2059C18.8835 12.1305 19.0311 12.0947 19.1767 12.0947C19.4894 12.0949 19.7932 12.2598 19.9548 12.5519C20.5183 13.5672 21.5817 15.482 21.6564 15.6157C21.6723 15.6388 21.7204 15.7077 21.7615 15.7662C21.8007 15.8218 21.843 15.8749 21.8868 15.9277C22.8357 17.078 22.9502 18.5842 22.1851 19.8592L22.1852 19.8591ZM21.4828 16.2615C21.4307 16.1983 21.3795 16.1339 21.3329 16.0675C21.1912 15.8664 21.1876 15.8612 21.177 15.8085C21.0113 15.5345 20.6073 14.8071 19.4965 12.806C19.3991 12.6303 19.1777 12.5662 19.0015 12.6636C18.9147 12.7122 18.845 12.7799 18.7942 12.8647C18.6912 13.0364 18.6872 13.2509 18.7845 13.4251L19.7484 15.1619C19.806 15.2656 19.7868 15.3948 19.7017 15.4771C19.6168 15.5596 19.4869 15.574 19.3849 15.5133L14.7475 12.7314C14.5289 12.6003 14.2408 12.6517 14.1057 12.8468C14.0279 12.959 14.0032 13.0928 14.0356 13.2235C14.0655 13.3429 14.1404 13.4436 14.2465 13.5072C14.2469 13.5074 14.247 13.5077 14.2474 13.5079L17.2794 15.3269C17.4034 15.4013 17.4436 15.562 17.3691 15.6862C17.2947 15.81 17.1341 15.8505 17.0098 15.7759L13.2873 13.5428C13.1817 13.4795 13.0574 13.4608 12.938 13.4908C12.8183 13.5207 12.7176 13.5954 12.6542 13.7016C12.5905 13.8073 12.5722 13.9315 12.6017 14.0509C12.6315 14.1702 12.7065 14.2711 12.8124 14.3347L13.5368 14.7692L16.5347 16.5678C16.6587 16.6423 16.6989 16.803 16.6244 16.9271C16.55 17.051 16.3894 17.0913 16.2651 17.0168L13.2324 15.1973C13.0143 15.0661 12.7303 15.1373 12.5991 15.3558C12.5355 15.4617 12.5171 15.5858 12.5466 15.7052C12.5764 15.8246 12.6514 15.9253 12.7575 15.9891L13.501 16.4352L15.7902 17.8086C15.9142 17.883 15.9544 18.0438 15.8799 18.1679C15.8054 18.2917 15.6449 18.3324 15.5206 18.2576L13.2314 16.8842C13.1258 16.8209 13.002 16.8022 12.882 16.8322C12.7626 16.862 12.6616 16.9368 12.5981 17.0426C12.5346 17.1485 12.5161 17.2728 12.5456 17.392C12.5755 17.5114 12.6504 17.6121 12.7565 17.6759L17.3972 20.4598C18.1503 20.9116 19.0188 21.0681 19.8417 20.9001C20.6561 20.7339 21.3288 20.2686 21.7358 19.59C22.3936 18.4942 22.299 17.2498 21.4831 16.2615L21.4828 16.2615Z"/>
</mask>
<path d="M22.1852 19.8591C21.7019 20.6652 20.907 21.2168 19.9469 21.413C18.9952 21.607 17.9943 21.4281 17.1281 20.9087L12.4874 18.1248C12.2616 17.9893 12.1019 17.7742 12.0379 17.5186C11.9745 17.2636 12.0142 16.9988 12.1494 16.7731C12.2339 16.6321 12.3523 16.5209 12.4896 16.4387L12.4883 16.4379C12.2624 16.3025 12.1027 16.0873 12.0391 15.8321C11.9751 15.577 12.0148 15.3119 12.1503 15.086C12.2375 14.9408 12.3571 14.8274 12.4935 14.7468C12.2954 14.6106 12.1527 14.4126 12.094 14.1778C12.0301 13.9224 12.0698 13.6576 12.2052 13.4319C12.3405 13.2061 12.5558 13.0465 12.811 12.9828C12.8907 12.9627 12.9716 12.9529 13.0516 12.9529C13.2087 12.9531 13.3629 12.9929 13.5045 13.067C13.5132 12.8835 13.5678 12.7033 13.6751 12.5487C13.9691 12.1244 14.5582 12.007 15.017 12.2823L18.8173 14.5618L18.3274 13.6795C18.1395 13.3427 18.1464 12.9271 18.3456 12.5949C18.4427 12.4332 18.5814 12.2989 18.7472 12.2059C18.8835 12.1305 19.0311 12.0947 19.1767 12.0947C19.4894 12.0949 19.7932 12.2598 19.9548 12.5519C20.5183 13.5672 21.5817 15.482 21.6564 15.6157C21.6723 15.6388 21.7204 15.7077 21.7615 15.7662C21.8007 15.8218 21.843 15.8749 21.8868 15.9277C22.8357 17.078 22.9502 18.5842 22.1851 19.8592L22.1852 19.8591ZM21.4828 16.2615C21.4307 16.1983 21.3795 16.1339 21.3329 16.0675C21.1912 15.8664 21.1876 15.8612 21.177 15.8085C21.0113 15.5345 20.6073 14.8071 19.4965 12.806C19.3991 12.6303 19.1777 12.5662 19.0015 12.6636C18.9147 12.7122 18.845 12.7799 18.7942 12.8647C18.6912 13.0364 18.6872 13.2509 18.7845 13.4251L19.7484 15.1619C19.806 15.2656 19.7868 15.3948 19.7017 15.4771C19.6168 15.5596 19.4869 15.574 19.3849 15.5133L14.7475 12.7314C14.5289 12.6003 14.2408 12.6517 14.1057 12.8468C14.0279 12.959 14.0032 13.0928 14.0356 13.2235C14.0655 13.3429 14.1404 13.4436 14.2465 13.5072C14.2469 13.5074 14.247 13.5077 14.2474 13.5079L17.2794 15.3269C17.4034 15.4013 17.4436 15.562 17.3691 15.6862C17.2947 15.81 17.1341 15.8505 17.0098 15.7759L13.2873 13.5428C13.1817 13.4795 13.0574 13.4608 12.938 13.4908C12.8183 13.5207 12.7176 13.5954 12.6542 13.7016C12.5905 13.8073 12.5722 13.9315 12.6017 14.0509C12.6315 14.1702 12.7065 14.2711 12.8124 14.3347L13.5368 14.7692L16.5347 16.5678C16.6587 16.6423 16.6989 16.803 16.6244 16.9271C16.55 17.051 16.3894 17.0913 16.2651 17.0168L13.2324 15.1973C13.0143 15.0661 12.7303 15.1373 12.5991 15.3558C12.5355 15.4617 12.5171 15.5858 12.5466 15.7052C12.5764 15.8246 12.6514 15.9253 12.7575 15.9891L13.501 16.4352L15.7902 17.8086C15.9142 17.883 15.9544 18.0438 15.8799 18.1679C15.8054 18.2917 15.6449 18.3324 15.5206 18.2576L13.2314 16.8842C13.1258 16.8209 13.002 16.8022 12.882 16.8322C12.7626 16.862 12.6616 16.9368 12.5981 17.0426C12.5346 17.1485 12.5161 17.2728 12.5456 17.392C12.5755 17.5114 12.6504 17.6121 12.7565 17.6759L17.3972 20.4598C18.1503 20.9116 19.0188 21.0681 19.8417 20.9001C20.6561 20.7339 21.3288 20.2686 21.7358 19.59C22.3936 18.4942 22.299 17.2498 21.4831 16.2615L21.4828 16.2615Z" fill="#331A57"/>
<path d="M22.1852 19.8591L20.8945 16.0731L31.2325 12.5488L25.6157 21.9162L22.1852 19.8591ZM19.9469 21.413L20.7474 25.332L20.7459 25.3324L19.9469 21.413ZM17.1281 20.9087L15.0712 24.3393L15.0704 24.3388L17.1281 20.9087ZM12.4874 18.1248L14.5451 14.6946L14.5451 14.6946L12.4874 18.1248ZM12.0379 17.5186L8.15763 18.4899L8.15633 18.4847L12.0379 17.5186ZM12.1494 16.7731L15.5812 18.8281L15.5801 18.83L12.1494 16.7731ZM12.4896 16.4387L14.6096 13.0468L20.1548 16.5125L14.5439 19.8709L12.4896 16.4387ZM12.4883 16.4379L14.5459 13.0077L14.5772 13.0266L14.6082 13.0459L12.4883 16.4379ZM12.0391 15.8321L15.9191 14.8597L15.9203 14.8645L12.0391 15.8321ZM12.1503 15.086L8.71955 13.0292L8.72201 13.0251L12.1503 15.086ZM12.4935 14.7468L14.7605 11.4513L19.9265 15.005L14.5264 18.1917L12.4935 14.7468ZM12.094 14.1778L15.9742 13.2059L15.9746 13.2077L12.094 14.1778ZM12.2052 13.4319L15.6365 15.4877L15.6348 15.4906L12.2052 13.4319ZM12.811 12.9828L13.7849 16.8624L13.781 16.8634L12.811 12.9828ZM13.0516 12.9529V8.9529L13.0558 8.95291L13.0516 12.9529ZM13.5045 13.067L17.5001 13.2563L17.2035 19.5167L11.6503 16.6113L13.5045 13.067ZM13.6751 12.5487L16.9626 14.8273L16.9621 14.8281L13.6751 12.5487ZM15.017 12.2823L12.9595 15.7125L12.959 15.7123L15.017 12.2823ZM18.8173 14.5618L22.3144 12.6202L29.5595 25.6698L16.7597 17.992L18.8173 14.5618ZM18.3274 13.6795L21.8205 11.7306L21.8246 11.7379L18.3274 13.6795ZM18.3456 12.5949L14.9152 10.5376L14.9163 10.5359L18.3456 12.5949ZM18.7472 12.2059L16.7906 8.71709L16.8003 8.71167L16.81 8.7063L18.7472 12.2059ZM19.1767 12.0947V8.09471L19.1788 8.09471L19.1767 12.0947ZM19.9548 12.5519L16.4574 14.493L16.4552 14.489L19.9548 12.5519ZM21.6564 15.6157L18.361 17.8828L18.2559 17.7301L18.1654 17.5684L21.6564 15.6157ZM21.7615 15.7662L18.4923 18.0711L18.4894 18.0669L21.7615 15.7662ZM21.8868 15.9277L24.966 13.3746L24.9724 13.3823L21.8868 15.9277ZM22.1851 19.8592L23.4758 23.6452L13.1326 27.1713L18.7553 17.801L22.1851 19.8592ZM21.4828 16.2615L21.8791 20.2418L19.7569 20.4531L18.3988 18.8088L21.4828 16.2615ZM21.3329 16.0675L24.6026 13.7633L24.6079 13.7709L21.3329 16.0675ZM21.177 15.8085L24.6002 13.7394L24.9595 14.3339L25.0974 15.0147L21.177 15.8085ZM19.4965 12.806L15.9992 14.7472L15.9985 14.746L19.4965 12.806ZM19.0015 12.6636L17.0483 9.1729L17.0576 9.16771L17.0669 9.16256L19.0015 12.6636ZM18.7942 12.8647L22.2248 14.9216L22.2244 14.9222L18.7942 12.8647ZM18.7845 13.4251L22.277 11.4751L22.2819 11.484L18.7845 13.4251ZM19.7484 15.1619L16.2515 17.104L16.251 17.103L19.7484 15.1619ZM19.7017 15.4771L16.9151 12.6074L16.9208 12.6019L19.7017 15.4771ZM19.3849 15.5133L17.3399 18.9511L17.3335 18.9473L17.3271 18.9435L19.3849 15.5133ZM14.7475 12.7314L16.804 9.30049L16.8053 9.30125L14.7475 12.7314ZM14.1057 12.8468L17.3941 15.1241L17.3934 15.1252L14.1057 12.8468ZM14.0356 13.2235L10.1551 14.1936L10.1536 14.1879L14.0356 13.2235ZM14.2465 13.5072L12.4573 17.0847L12.3205 17.0163L12.1893 16.9376L14.2465 13.5072ZM14.2474 13.5079L16.0366 9.93034L16.1737 9.99891L16.3051 10.0778L14.2474 13.5079ZM17.2794 15.3269L19.3372 11.8968L19.3387 11.8977L17.2794 15.3269ZM17.3691 15.6862L20.7995 17.7436L20.7971 17.7475L17.3691 15.6862ZM17.0098 15.7759L19.0675 12.3457L19.0685 12.3463L17.0098 15.7759ZM13.2873 13.5428L15.3438 10.1119L15.3451 10.1127L13.2873 13.5428ZM12.938 13.4908L13.9132 17.3702L13.9057 17.372L12.938 13.4908ZM12.6542 13.7016L16.087 15.7549L16.0818 15.7634L12.6542 13.7016ZM12.6017 14.0509L8.72111 15.021L8.71863 15.0109L12.6017 14.0509ZM12.8124 14.3347L10.7551 17.7651L10.7529 17.7638L12.8124 14.3347ZM13.5368 14.7692L15.5941 11.3388L15.5947 11.3391L13.5368 14.7692ZM16.5347 16.5678L18.5926 13.1378L18.594 13.1387L16.5347 16.5678ZM16.6244 16.9271L20.0548 18.9845L20.0524 18.9884L16.6244 16.9271ZM16.2651 17.0168L14.2097 20.4484L14.2072 20.4469L16.2651 17.0168ZM13.2324 15.1973L11.1745 18.6274L11.1706 18.625L13.2324 15.1973ZM12.5991 15.3558L16.0281 17.4153L16.0281 17.4153L12.5991 15.3558ZM12.5466 15.7052L8.66602 16.6754L8.66353 16.6653L12.5466 15.7052ZM12.7575 15.9891L10.6997 19.4192L10.6964 19.4172L12.7575 15.9891ZM13.501 16.4352L15.5588 13.005L15.559 13.0051L13.501 16.4352ZM15.7902 17.8086L17.8481 14.3786L17.8495 14.3794L15.7902 17.8086ZM15.8799 18.1679L19.3102 20.2253L19.3079 20.2292L15.8799 18.1679ZM15.5206 18.2576L17.5785 14.8276L17.5826 14.8301L15.5206 18.2576ZM13.2314 16.8842L15.2879 13.4533L15.2894 13.4542L13.2314 16.8842ZM12.882 16.8322L11.9118 12.9516L11.9119 12.9516L12.882 16.8322ZM12.5981 17.0426L9.16672 14.9869L9.16813 14.9846L12.5981 17.0426ZM12.5456 17.392L8.66504 18.3622L8.66286 18.3534L12.5456 17.392ZM12.7565 17.6759L10.6988 21.1061L10.6954 21.104L12.7565 17.6759ZM17.3972 20.4598L19.4549 17.0297L19.4551 17.0298L17.3972 20.4598ZM19.8417 20.9001L20.642 24.8193L20.6415 24.8194L19.8417 20.9001ZM21.7358 19.59L18.3055 17.5326L18.3062 17.5314L21.7358 19.59ZM21.4831 16.2615L21.0868 12.2811L23.2098 12.0698L24.5679 13.7151L21.4831 16.2615ZM25.6157 21.9162C24.5281 23.73 22.753 24.9224 20.7474 25.332L19.1463 17.4939C19.1151 17.5003 19.0466 17.5214 18.9639 17.5789C18.8799 17.6371 18.8065 17.7156 18.7546 17.8021L25.6157 21.9162ZM20.7459 25.3324C18.773 25.7346 16.7577 25.3505 15.0712 24.3393L19.1851 17.4781C19.2088 17.4923 19.2182 17.4924 19.2098 17.4908C19.2009 17.4893 19.1787 17.4873 19.1478 17.4936L20.7459 25.3324ZM15.0704 24.3388L10.4297 21.5549L14.5451 14.6946L19.1858 17.4786L15.0704 24.3388ZM10.4298 21.555C9.29624 20.875 8.47962 19.7763 8.15763 18.4899L15.9182 16.5474C15.7242 15.772 15.227 15.1037 14.5451 14.6946L10.4298 21.555ZM8.15633 18.4847C7.8365 17.1995 8.04033 15.8479 8.7188 14.7163L15.5801 18.83C15.988 18.1497 16.1124 17.3278 15.9195 16.5526L8.15633 18.4847ZM8.7177 14.7181C9.17987 13.9463 9.80142 13.386 10.4353 13.0066L14.5439 19.8709C14.9032 19.6559 15.2879 19.3179 15.5812 18.8281L8.7177 14.7181ZM10.3696 19.8307L10.3683 19.8299L14.6082 13.0459L14.6096 13.0468L10.3696 19.8307ZM10.4306 19.8681C9.29791 19.1886 8.47944 18.0895 8.15789 16.7997L15.9203 14.8645C15.726 14.0851 15.227 13.4163 14.5459 13.0077L10.4306 19.8681ZM8.1591 16.8046C7.83593 15.5152 8.04104 14.161 8.71955 13.0292L15.581 17.1427C15.9886 16.4628 16.1143 15.6387 15.9191 14.8597L8.1591 16.8046ZM8.72201 13.0251C9.17172 12.277 9.78502 11.7006 10.4606 11.3019L14.5264 18.1917C14.9291 17.9541 15.3033 17.6047 15.5785 17.1468L8.72201 13.0251ZM10.2265 18.0424C9.26648 17.382 8.52051 16.3762 8.21344 15.1478L15.9746 13.2077C15.785 12.449 15.3243 11.8391 14.7605 11.4513L10.2265 18.0424ZM8.21389 15.1497C7.89115 13.8611 8.09546 12.5064 8.77567 11.3732L15.6348 15.4906C16.0441 14.8088 16.169 13.9837 15.9742 13.2059L8.21389 15.1497ZM8.77394 11.3761C9.45505 10.2393 10.5559 9.42335 11.8411 9.10214L13.781 16.8634C14.5557 16.6697 15.226 16.1729 15.6365 15.4877L8.77394 11.3761ZM11.8371 9.10313C12.2359 9.00301 12.6439 8.95291 13.0516 8.95291V16.9529C13.2992 16.9529 13.5455 16.9225 13.7849 16.8624L11.8371 9.10313ZM13.0558 8.95291C13.8945 8.95378 14.6801 9.16771 15.3588 9.5228L11.6503 16.6113C12.0456 16.8181 12.5229 16.9524 13.0474 16.9529L13.0558 8.95291ZM9.50902 12.8778C9.54915 12.0305 9.807 11.1072 10.3881 10.2692L16.9621 14.8281C17.3287 14.2994 17.4773 13.7366 17.5001 13.2563L9.50902 12.8778ZM10.3876 10.27C11.9479 8.01883 14.9101 7.55337 17.0751 8.85238L12.959 15.7123C14.2062 16.4606 15.9904 16.23 16.9626 14.8273L10.3876 10.27ZM17.0746 8.8521L20.8748 11.1316L16.7597 17.992L12.9595 15.7125L17.0746 8.8521ZM15.3201 16.5034L14.8303 15.6211L21.8246 11.7379L22.3144 12.6202L15.3201 16.5034ZM14.8343 15.6285C13.9455 14.0354 13.983 12.0921 14.9152 10.5376L21.776 14.6521C22.3097 13.7622 22.3334 12.6499 21.8205 11.7306L14.8343 15.6285ZM14.9163 10.5359C15.375 9.77178 16.0238 9.14713 16.7906 8.71709L20.7038 15.6947C21.139 15.4506 21.5104 15.0946 21.775 14.6539L14.9163 10.5359ZM16.81 8.7063C17.5558 8.29347 18.3726 8.09471 19.1767 8.09471V16.0947C19.6896 16.0947 20.2112 15.9674 20.6845 15.7055L16.81 8.7063ZM19.1788 8.09471C20.8772 8.0956 22.5561 8.99164 23.4545 10.6148L16.4552 14.489C17.0303 15.5281 18.1017 16.0941 19.1746 16.0947L19.1788 8.09471ZM23.4523 10.6109C24.0187 11.6314 25.0769 13.5369 25.1474 13.663L18.1654 17.5684C18.0864 17.4271 17.018 15.5031 16.4574 14.493L23.4523 10.6109ZM24.9519 13.3485C24.9502 13.3461 24.9518 13.3484 24.9582 13.3576C24.9638 13.3656 24.971 13.376 24.9794 13.3881C24.9964 13.4124 25.0161 13.4405 25.0337 13.4655L18.4894 18.0669C18.4466 18.0059 18.3889 17.9234 18.361 17.8828L24.9519 13.3485ZM25.0307 13.4613C25.0059 13.4261 24.9862 13.4003 24.9753 13.3864C24.9648 13.373 24.9601 13.3675 24.966 13.3746L18.8076 18.4809C18.7345 18.3927 18.6178 18.2489 18.4923 18.0711L25.0307 13.4613ZM24.9724 13.3823C26.9947 15.8337 27.2554 19.1836 25.615 21.9173L18.7553 17.801C18.7273 17.8475 18.6768 17.9734 18.6902 18.1494C18.7035 18.325 18.7717 18.4374 18.8013 18.4732L24.9724 13.3823ZM20.8944 16.0731L20.8945 16.0731L23.4759 23.6452L23.4758 23.6452L20.8944 16.0731ZM18.3988 18.8088C18.3186 18.7117 18.1919 18.5552 18.0579 18.3641L24.6079 13.7709C24.5856 13.7391 24.5694 13.7179 24.563 13.7097C24.5568 13.7018 24.5566 13.7017 24.5668 13.7141L18.3988 18.8088ZM18.0633 18.3717C18.046 18.3471 17.8955 18.1385 17.7818 17.9503C17.6947 17.8061 17.5533 17.5548 17.4309 17.2213C17.312 16.8975 17.2606 16.6225 17.2565 16.6024L25.0974 15.0147C25.0969 15.0124 25.0932 14.994 25.0879 14.9696C25.0824 14.944 25.0734 14.904 25.0612 14.8551C25.0351 14.751 24.9969 14.617 24.9409 14.4646C24.8266 14.1531 24.697 13.9256 24.6298 13.8144C24.5727 13.7199 24.5279 13.6567 24.5419 13.6768C24.5489 13.687 24.5627 13.7067 24.6026 13.7633L18.0633 18.3717ZM17.7537 17.8777C17.5377 17.5203 17.0764 16.688 15.9992 14.7472L22.9939 10.8647C24.1381 12.9261 24.4849 13.5487 24.6002 13.7394L17.7537 17.8777ZM15.9985 14.746C16.9686 16.4952 19.1759 17.1373 20.936 16.1647L17.0669 9.16256C19.1796 7.99517 21.8296 8.7655 22.9946 10.8659L15.9985 14.746ZM20.9546 16.1544C21.4769 15.8622 21.9166 15.4356 22.2248 14.9216L15.3635 10.8078C15.7734 10.1242 16.3525 9.56219 17.0483 9.1729L20.9546 16.1544ZM22.2244 14.9222C22.8517 13.8763 22.8841 12.5625 22.277 11.4751L15.292 15.3751C14.4904 13.9393 14.5306 12.1964 15.3639 10.8072L22.2244 14.9222ZM22.2819 11.484L23.2459 13.2208L16.251 17.103L15.287 15.3662L22.2819 11.484ZM23.2453 13.2198C24.181 14.9045 23.8704 17.0099 22.4826 18.3523L16.9208 12.6019C15.7032 13.7796 15.431 15.6266 16.2515 17.104L23.2453 13.2198ZM22.4883 18.3468C21.0866 19.7078 18.9721 19.922 17.3399 18.9511L21.4298 12.0756C20.0016 11.226 18.1469 11.4114 16.9151 12.6074L22.4883 18.3468ZM17.3271 18.9435L12.6898 16.1615L16.8053 9.30125L21.4426 12.0832L17.3271 18.9435ZM12.691 16.1622C14.0557 16.9802 16.1863 16.8683 17.3941 15.1241L10.8172 10.5696C12.2953 8.43507 15.0022 8.22047 16.804 9.30049L12.691 16.1622ZM17.3934 15.1252C17.9629 14.3033 18.1657 13.2577 17.9176 12.2591L10.1536 14.1879C9.84063 12.9279 10.0929 11.6146 10.8179 10.5685L17.3934 15.1252ZM17.9162 12.2534C17.6864 11.3343 17.0998 10.5541 16.3037 10.0768L12.1893 16.9376C11.1811 16.333 10.4445 15.3515 10.1551 14.1936L17.9162 12.2534ZM16.0358 9.92968C16.1253 9.97448 16.2094 10.0207 16.288 10.0674C16.3665 10.114 16.439 10.1606 16.5055 10.2061C16.638 10.2968 16.7468 10.3829 16.8305 10.4538C16.8724 10.4893 16.909 10.5217 16.9396 10.5496C16.9701 10.5773 16.9958 10.6016 17.0156 10.6206C17.0353 10.6394 17.0509 10.6549 17.0604 10.6642C17.0652 10.669 17.0691 10.6729 17.0715 10.6753C17.0727 10.6765 17.0737 10.6774 17.0743 10.678C17.0746 10.6783 17.0748 10.6786 17.075 10.6787C17.0751 10.6788 17.0751 10.6789 17.0752 10.6789C17.0752 10.6789 17.0752 10.6789 17.0752 10.6789C17.0752 10.679 17.0752 10.679 17.0752 10.679C17.0755 10.6793 17.0737 10.6774 17.0716 10.6753C17.0692 10.673 17.0653 10.6691 17.0605 10.6643C17.0511 10.655 17.0354 10.6396 17.0158 10.6208C16.996 10.6018 16.9703 10.5776 16.9399 10.5498C16.9093 10.522 16.8728 10.4896 16.8309 10.4541C16.7472 10.3834 16.6385 10.2973 16.5061 10.2067C16.4397 10.1612 16.3672 10.1146 16.2887 10.068C16.2101 10.0213 16.1261 9.97511 16.0366 9.93034L12.4581 17.0854C12.3686 17.0406 12.2845 16.9943 12.2059 16.9477C12.1273 16.9011 12.0548 16.8544 11.9884 16.8089C11.8559 16.7183 11.7471 16.6321 11.6634 16.5613C11.6214 16.5258 11.5849 16.4934 11.5543 16.4655C11.5238 16.4378 11.4981 16.4135 11.4783 16.3945C11.4586 16.3756 11.4429 16.3602 11.4335 16.3508C11.4286 16.3461 11.4247 16.3422 11.4224 16.3398C11.4212 16.3386 11.4202 16.3376 11.4196 16.337C11.4193 16.3367 11.419 16.3365 11.4189 16.3364C11.4188 16.3363 11.4188 16.3362 11.4187 16.3362C11.4187 16.3362 11.4187 16.3361 11.4187 16.3361C11.4187 16.3361 11.4187 16.3361 11.4187 16.3361C11.4183 16.3358 11.4202 16.3376 11.4223 16.3398C11.4247 16.3421 11.4286 16.346 11.4334 16.3508C11.4428 16.3601 11.4585 16.3755 11.4781 16.3943C11.4978 16.4133 11.5235 16.4375 11.554 16.4652C11.5846 16.4931 11.6211 16.5255 11.663 16.5609C11.7467 16.6317 11.8554 16.7178 11.9878 16.8084C12.0542 16.8539 12.1267 16.9005 12.2052 16.9471C12.2838 16.9937 12.3678 17.04 12.4573 17.0847L16.0358 9.92968ZM16.3051 10.0778L19.3372 11.8968L15.2216 18.757L12.1896 16.938L16.3051 10.0778ZM19.3387 11.8977C21.3566 13.1094 22.0093 15.7264 20.7995 17.7436L13.9388 13.6288C12.8779 15.3977 13.4502 17.6932 15.2201 18.756L19.3387 11.8977ZM20.7971 17.7475C19.5889 19.7568 16.9752 20.4204 14.9511 19.2054L19.0685 12.3463C17.2931 11.2806 15.0005 11.8632 13.9411 13.6249L20.7971 17.7475ZM14.9521 19.206L11.2296 16.9729L15.3451 10.1127L19.0675 12.3457L14.9521 19.206ZM11.2309 16.9737C12.0298 17.4526 12.9953 17.6008 13.9132 17.3701L11.9629 9.6115C13.1195 9.32078 14.3337 9.50646 15.3438 10.1119L11.2309 16.9737ZM13.9057 17.372C14.8214 17.1437 15.6062 16.5586 16.0869 15.7549L9.2214 11.6482C9.82908 10.6323 10.8153 9.89762 11.9704 9.60962L13.9057 17.372ZM16.0818 15.7634C16.5671 14.9567 16.7079 13.9934 16.4848 13.0908L8.71863 15.0109C8.43642 13.8696 8.61399 12.658 9.22655 11.6397L16.0818 15.7634ZM16.4823 13.0807C16.2532 12.1645 15.6687 11.3842 14.872 10.9057L10.7529 17.7638C9.7443 17.158 9.00988 16.176 8.72113 15.021L16.4823 13.0807ZM14.8698 10.9044L15.5941 11.3388L11.4795 18.1995L10.7551 17.7651L14.8698 10.9044ZM15.5947 11.3391L18.5926 13.1378L14.4768 19.9978L11.4789 18.1992L15.5947 11.3391ZM18.594 13.1387C20.6119 14.3504 21.2646 16.9673 20.0548 18.9845L13.1941 14.8698C12.1332 16.6387 12.7055 18.9342 14.4754 19.997L18.594 13.1387ZM20.0524 18.9884C18.8419 21.0015 16.2286 21.6576 14.2097 20.4484L18.3205 13.5853C16.5503 12.525 14.258 13.1004 13.1964 14.8658L20.0524 18.9884ZM14.2072 20.4469L11.1745 18.6274L15.2903 11.7673L18.323 13.5868L14.2072 20.4469ZM11.1706 18.625C12.8531 19.637 15.0253 19.0849 16.0281 17.4153L9.17002 13.2963C10.4352 11.1897 13.1755 10.4953 15.2942 11.7696L11.1706 18.625ZM16.0281 17.4153C16.5114 16.6106 16.653 15.6485 16.4297 14.7451L8.66353 16.6653C8.38115 15.5232 8.55946 14.3128 9.17004 13.2962L16.0281 17.4153ZM16.4272 14.7351C16.1973 13.8155 15.6108 13.0373 14.8186 12.561L10.6964 19.4172C9.69194 18.8133 8.95561 17.8337 8.66603 16.6754L16.4272 14.7351ZM14.8152 12.559L15.5588 13.005L11.4433 19.8653L10.6997 19.4192L14.8152 12.559ZM15.559 13.0051L17.8481 14.3786L13.7323 21.2386L11.4431 19.8652L15.559 13.0051ZM17.8495 14.3794C19.8673 15.5912 20.5201 18.2081 19.3102 20.2253L12.4496 16.1105C11.3886 17.8794 11.961 20.1749 13.7309 21.2378L17.8495 14.3794ZM19.3079 20.2292C18.1019 22.2348 15.4879 22.906 13.4586 21.6851L17.5826 14.8301C15.8019 13.7588 13.509 14.3487 12.4519 16.1066L19.3079 20.2292ZM13.4627 21.6876L11.1735 20.3142L15.2894 13.4542L17.5785 14.8276L13.4627 21.6876ZM11.175 20.3151C11.9751 20.7946 12.9393 20.9409 13.852 20.7128L11.9119 12.9516C13.0647 12.6634 14.2766 12.8471 15.2879 13.4533L11.175 20.3151ZM13.8521 20.7128C14.762 20.4853 15.5457 19.9044 16.0281 19.1006L9.16813 14.9846C9.77737 13.9692 10.7632 13.2388 11.9118 12.9516L13.8521 20.7128ZM16.0295 19.0982C16.5083 18.2989 16.6532 17.3387 16.4284 16.4307L8.66286 18.3534C8.37901 17.2069 8.56093 15.9982 9.16672 14.9869L16.0295 19.0982ZM16.4262 16.4219C16.1963 15.5023 15.6099 14.7241 14.8176 14.2478L10.6954 21.104C9.69096 20.5001 8.95463 19.5205 8.66505 18.3622L16.4262 16.4219ZM14.8142 14.2458L19.4549 17.0297L15.3395 23.89L10.6988 21.1061L14.8142 14.2458ZM19.4551 17.0298C19.3933 16.9927 19.2472 16.939 19.0419 16.9809L20.6415 24.8194C18.7903 25.1971 16.9073 24.8306 15.3393 23.8899L19.4551 17.0298ZM19.0414 16.981C18.9412 17.0015 18.8073 17.0497 18.6661 17.1474C18.5235 17.2461 18.3979 17.3786 18.3055 17.5326L25.1661 21.6475C24.15 23.3415 22.4924 24.4414 20.642 24.8193L19.0414 16.981ZM18.3062 17.5314C18.2391 17.6432 18.1499 17.877 18.1736 18.1884C18.1972 18.4992 18.3199 18.7128 18.3983 18.8078L24.5679 13.7151C26.4581 16.005 26.699 19.0937 25.1654 21.6486L18.3062 17.5314ZM21.8794 20.2418L21.8791 20.2418L21.0865 12.2812L21.0868 12.2811L21.8794 20.2418Z" fill="#331A57" mask="url(#path-5-inside-3_211_2339)"/>
</svg>
