<svg width="17" height="18" viewBox="0 0 17 18" fill="none" xmlns="http://www.w3.org/2000/svg">
<path d="M13.4786 1.66113H3.56097C2.34378 1.66113 1.35706 2.2548 1.35706 2.98713V15.5841C1.35706 16.3164 2.34378 16.9101 3.56097 16.9101H13.4786C14.6958 16.9101 15.6825 16.3164 15.6825 15.5841V2.98713C15.6825 2.2548 14.6958 1.66113 13.4786 1.66113Z" stroke="#A0A3BD" stroke-width="1.6" stroke-linecap="round" stroke-linejoin="round"/>
<path d="M12.1295 1.66113V2.52987C12.1295 2.76028 11.9774 2.98124 11.7066 3.14416C11.4358 3.30708 11.0686 3.39861 10.6856 3.39861H6.35389C5.97094 3.39861 5.60367 3.30708 5.33289 3.14416C5.0621 2.98124 4.90997 2.76028 4.90997 2.52987V1.66113" stroke="#A0A3BD" stroke-width="1.6" stroke-linecap="round" stroke-linejoin="round"/>
</svg>
